<?xml version="1.0" standalone="no"?>
<!DOCTYPE svg PUBLIC "-//W3C//DTD SVG 1.1//EN" "http://www.w3.org/Graphics/SVG/1.1/DTD/svg11.dtd" >
<svg>
<metadata>
Created by FontForge 20120731 at Sat Sep 10 02:18:42 2016
 By ,,,
Copyright 2011 Adobe Systems Incorporated. All rights reserved.
</metadata>
<defs>
<font id="LitteraTextLight" horiz-adv-x="216" >
  <font-face 
    font-family="Littera Text Light"
    font-weight="300"
    font-stretch="normal"
    units-per-em="1000"
    panose-1="2 0 5 6 4 0 0 2 0 4"
    ascent="800"
    descent="-200"
    x-height="460"
    cap-height="650"
    bbox="-17 -219 1160 909"
    underline-thickness="50"
    underline-position="-50"
    unicode-range="U+0020-2122"
  />
<missing-glyph horiz-adv-x="0" 
 />
    <glyph glyph-name=".notdef" horiz-adv-x="0" 
 />
    <glyph glyph-name=".null" horiz-adv-x="0" 
 />
    <glyph glyph-name="nonmarkingreturn" horiz-adv-x="333" 
 />
    <glyph glyph-name="space" unicode=" " horiz-adv-x="220" 
 />
    <glyph glyph-name="exclam" unicode="!" horiz-adv-x="182" 
d="M119 650v-460h-56v460h56zM50 36q0 17 12 29t29 12t29 -12t12 -29t-12 -29t-29 -12t-29 12t-12 29z" />
    <glyph glyph-name="quotedbl" unicode="&#x22;" horiz-adv-x="260" 
d="M60 509l-10 190h60l-10 -190h-40zM160 509l-10 190h60l-10 -190h-40z" />
    <glyph glyph-name="numbersign" unicode="#" horiz-adv-x="685" 
d="M80 427v53h187l65 170h59l-66 -170h162l65 170h59l-66 -170h140v-53h-160l-75 -196h155v-53h-176l-68 -178h-59l68 178h-161l-68 -178h-59l68 178h-150v53h171l75 196h-166zM305 427l-75 -196h161l75 196h-161z" />
    <glyph glyph-name="dollar" unicode="$" horiz-adv-x="537" 
d="M477 182q0 -82 -50 -129t-129 -53v-131h-56v130q-126 9 -185 114l42 36q40 -59 80.5 -79t88.5 -20q69 0 111 31.5t42 100.5q0 49 -33 77t-113 54q-101 32 -130 49q-70 42 -70 131q0 67 43.5 108t123.5 48v131h56v-131q49 -1 85 -17.5t74 -54.5l-38 -45q-34 35 -68 50.5
t-81 15.5q-67 0 -103 -30t-36 -75q0 -54 30.5 -78t112.5 -48q39 -11 65 -21t54.5 -25.5t45 -33.5t27.5 -44.5t11 -60.5z" />
    <glyph glyph-name="ampersand" unicode="&#x26;" horiz-adv-x="571" 
d="M490 -15q-12 14 -36 43t-36 43q-76 -86 -179 -86q-80 0 -134.5 44t-54.5 123q0 59 35.5 103.5t100.5 91.5q-52 64 -71.5 97.5t-19.5 70.5q0 68 43 109t117 41q76 0 118 -36.5t42 -103.5q0 -35 -25 -71.5t-51 -58t-76 -58.5l152 -180q31 57 43 124h56q-14 -89 -63 -166
q14 -16 40.5 -47.5t39.5 -47.5q-7 -6 -20.5 -17.5t-20.5 -17.5zM384 111l-164 195q-42 -31 -60 -45.5t-36.5 -45.5t-18.5 -68q0 -51 39.5 -80t92.5 -29q88 0 147 73zM360 525q0 47 -30.5 67t-74.5 20q-43 0 -74 -24t-31 -73q0 -29 17.5 -58t61.5 -80q44 31 66.5 48.5
t43.5 45.5t21 54z" />
    <glyph glyph-name="quotesingle" unicode="'" horiz-adv-x="160" 
d="M60 509l-10 190h60l-10 -190h-40z" />
    <glyph glyph-name="parenleft" unicode="(" horiz-adv-x="239" 
d="M60 261q0 249 121 452l48 -30q-113 -193 -113 -422q0 -199 113 -392l-48 -30q-121 203 -121 422z" />
    <glyph glyph-name="parenright" unicode=")" horiz-adv-x="239" 
d="M179 261q0 -219 -121 -422l-48 30q113 193 113 392q0 229 -113 422l48 30q121 -203 121 -452z" />
    <glyph glyph-name="asterisk" unicode="*" horiz-adv-x="340" 
d="M222 680l46 -27l-69 -100l121 10v-53l-121 10l69 -100l-46 -27l-52 108l-52 -108l-46 27l68 99l-120 -9v53l120 -10l-68 100l46 27l52 -109z" />
    <glyph glyph-name="plus" unicode="+" horiz-adv-x="515" 
d="M70 218v53h161v171h53v-171h161v-53h-161v-171h-53v171h-161z" />
    <glyph glyph-name="comma" unicode="," horiz-adv-x="203" 
d="M74 69h69l-65 -189h-38q33 189 34 189z" />
    <glyph glyph-name="hyphen" unicode="-" horiz-adv-x="435" 
d="M50 218v53h335v-53h-335z" />
    <glyph glyph-name="period" unicode="." horiz-adv-x="182" 
d="M50 36q0 17 12 29t29 12t29 -12t12 -29t-12 -29t-29 -12t-29 12t-12 29z" />
    <glyph glyph-name="slash" unicode="/" horiz-adv-x="424" 
d="M424 670l-373 -804l-51 24l373 804z" />
    <glyph glyph-name="zero" unicode="0" horiz-adv-x="552" 
d="M60 325q0 170 55.5 255t160.5 85t160.5 -85t55.5 -255t-55.5 -255t-160.5 -85t-160.5 85t-55.5 255zM118 325q0 -151 40 -219t118 -68q79 0 118.5 68t39.5 219q0 152 -39.5 219.5t-118.5 67.5q-78 0 -118 -68t-40 -219z" />
    <glyph glyph-name="one" unicode="1" horiz-adv-x="282" 
d="M30 469v55q48 0 82 37t34 89h56v-650h-56v527q-30 -58 -116 -58z" />
    <glyph glyph-name="two" unicode="2" horiz-adv-x="464" 
d="M414 53v-53h-364v53q304 271 304 435q0 68 -32.5 96t-76.5 28q-103 0 -123 -116l-53 12q29 157 176 157q26 0 51.5 -7.5t53 -25t44.5 -55t17 -89.5q0 -92 -96.5 -224.5t-194.5 -210.5h294z" />
    <glyph glyph-name="three" unicode="3" horiz-adv-x="506" 
d="M58 133l56 14q11 -52 48.5 -80t89.5 -28q58 0 93.5 38t35.5 111q0 62 -29 96t-82 34h-38v54h33q58 0 82.5 37.5t24.5 82.5q0 64 -34 92.5t-86 28.5q-42 0 -79 -30t-47 -94l-54 13q8 59 39 97t66 52t75 14q83 0 133 -44.5t50 -124.5q0 -50 -25.5 -95.5t-70.5 -53.5v-6
q54 -14 80.5 -55t26.5 -97q0 -87 -44.5 -145.5t-150.5 -58.5q-75 0 -128.5 40t-64.5 108z" />
    <glyph glyph-name="four" unicode="4" horiz-adv-x="469" 
d="M30 184l244 466h89v-459h77v-53h-77v-138h-56v138h-277v46zM91 191h216v409z" />
    <glyph glyph-name="five" unicode="5" horiz-adv-x="506" 
d="M416 650v-53h-258l-24 -220q14 24 47.5 40.5t72.5 16.5q101 0 146.5 -63.5t45.5 -161.5q0 -41 -9 -77.5t-30 -71t-61 -55t-95 -20.5q-75 0 -128 39t-65 109l56 14q10 -52 48.5 -80t89.5 -28q56 0 92.5 46.5t36.5 122.5q0 170 -129 170q-79 0 -123 -59h-57l34 331h310z
" />
    <glyph glyph-name="six" unicode="6" horiz-adv-x="504" 
d="M443 212q-1 -114 -51 -170.5t-133 -56.5q-112 0 -155.5 76t-43.5 216q0 208 52 298t152 90q141 0 168 -163l-54 -13q-19 123 -114 123q-71 0 -109.5 -73t-40.5 -216q21 45 63.5 68t81.5 23q80 0 132.5 -55t51.5 -147zM259 38q57 0 94 41.5t37 122.5q0 78 -36 118.5
t-95 40.5q-61 0 -100.5 -40.5t-39.5 -119.5q0 -82 39 -122.5t101 -40.5z" />
    <glyph glyph-name="seven" unicode="7" horiz-adv-x="464" 
d="M40 597v53h384v-53q-33 -33 -82 -116.5t-80 -167.5q-28 -78 -45.5 -174t-17.5 -139h-60q0 43 17.5 139t45.5 174q31 84 80 167.5t82 116.5h-324z" />
    <glyph glyph-name="eight" unicode="8" horiz-adv-x="497" 
d="M417 497q0 -50 -24 -89.5t-66 -56.5v-4q45 -15 77.5 -59t32.5 -107q0 -93 -51.5 -144.5t-136.5 -51.5t-137 51.5t-52 143.5q0 64 32 108t77 59v4q-42 17 -65.5 56.5t-23.5 88.5q0 76 49.5 122.5t119.5 46.5t119 -46t49 -122zM249 38q55 0 92 37.5t37 105.5
q0 65 -35.5 101.5t-93.5 36.5t-94 -37t-36 -102q0 -69 35 -105.5t95 -36.5zM249 372q53 0 82 37t29 88q0 45 -30.5 80t-80.5 35t-81 -35t-31 -80q0 -51 29.5 -88t82.5 -37z" />
    <glyph glyph-name="nine" unicode="9" horiz-adv-x="504" 
d="M61 442q1 114 53 168.5t131 54.5q199 0 199 -292q0 -388 -197 -388q-154 0 -189 148l55 14q29 -109 131 -109q138 0 146 289q-21 -45 -61.5 -68t-78.5 -23q-80 0 -135 57t-54 149zM245 612q-54 0 -92.5 -42t-38.5 -122q0 -78 36 -118.5t95 -40.5q61 0 100.5 40.5
t39.5 119.5q0 81 -40.5 122t-99.5 41z" />
    <glyph glyph-name="colon" unicode=":" horiz-adv-x="222" 
d="M70 96q0 17 12 29t29 12t29 -12t12 -29t-12 -29t-29 -12t-29 12t-12 29zM70 364q0 17 12 29t29 12t29 -12t12 -29t-12 -29t-29 -12t-29 12t-12 29z" />
    <glyph glyph-name="semicolon" unicode=";" horiz-adv-x="193" 
d="M60 364q0 17 12 29t29 12t29 -12t12 -29t-12 -29t-29 -12t-29 12t-12 29zM74 69h69l-65 -189h-38q33 189 34 189z" />
    <glyph glyph-name="less" unicode="&#x3c;" horiz-adv-x="427" 
d="M338 -15l-308 259l307 255l40 -39l-258 -216l258 -219z" />
    <glyph glyph-name="equal" unicode="=" horiz-adv-x="515" 
d="M70 158v53h375v-53h-375zM70 288v53h375v-53h-375z" />
    <glyph glyph-name="greater" unicode="&#x3e;" horiz-adv-x="427" 
d="M397 244l-308 -259l-39 40l258 219l-258 216l40 39z" />
    <glyph glyph-name="question" unicode="?" horiz-adv-x="447" 
d="M247 190h-56v66q0 48 19.5 76.5t59.5 56.5q46 32 58 49q16 22 16 54q0 64 -35 92.5t-87 28.5q-50 0 -88 -37.5t-38 -115.5h-56q0 57 16.5 99t44 64t58 32t63.5 10q83 0 134 -44.5t51 -124.5q0 -45 -21 -76.5t-65 -62.5q-1 -1 -11 -8t-12 -8.5t-11 -8.5t-11.5 -10.5
t-9 -10.5t-8.5 -13.5t-5.5 -15t-4.5 -18t-1 -20.5v-54zM178 36q0 17 12 29t29 12t29 -12t12 -29t-12 -29t-29 -12t-29 12t-12 29z" />
    <glyph glyph-name="at" unicode="@" horiz-adv-x="772" 
d="M103 214q0 -144 79.5 -226t203.5 -82q83 0 145 38l30 -43q-78 -47 -175 -47q-149 0 -242.5 100.5t-93.5 259.5q0 158 94 259t242 101t242 -99.5t94 -260.5q0 -60 -10.5 -106.5t-40 -79.5t-75.5 -33q-63 0 -84 51q-52 -51 -159 -51q-75 0 -114 37t-39 94q0 31 10.5 55
t25.5 40t42 27t49 16t57.5 8t56 3.5t56.5 0.5q7 119 -104 119q-73 0 -131 -57l-33 39q68 68 163 68q85 0 123 -40t38 -128v-175q0 -27 12.5 -42.5t34.5 -15.5q31 0 50 42.5t19 127.5q0 145 -79 226.5t-204 81.5q-124 0 -203.5 -82t-79.5 -226zM497 96v132q-67 0 -113.5 -6.5
t-70 -15t-36.5 -24.5t-15 -27t-2 -30q0 -34 24 -57.5t73 -23.5q45 0 77 10.5t63 41.5z" />
    <glyph glyph-name="A" unicode="A" horiz-adv-x="617" 
d="M530 0l-61 163h-321l-61 -163h-57l250 650h57l250 -650h-57zM308 591l-143 -383h287z" />
    <glyph glyph-name="B" unicode="B" horiz-adv-x="598" 
d="M80 0v650h231q103 0 154.5 -41.5t51.5 -118.5q0 -49 -25.5 -90.5t-70.5 -55.5v-5q57 -9 92 -56t35 -103q0 -82 -55 -131t-161 -49h-252zM136 312v-267h199q77 0 117 37.5t40 97.5t-40 96t-117 36h-199zM136 357h179q74 0 110.5 35.5t36.5 97.5q0 115 -148 115h-178v-248z
" />
    <glyph glyph-name="C" unicode="C" horiz-adv-x="641" 
d="M108 325q0 -131 66 -209.5t172 -78.5q132 0 196 113l49 -31q-79 -134 -245 -134q-134 0 -215 90t-81 247t81 250t215 93q165 0 245 -133l-49 -31q-65 112 -196 112q-106 0 -172 -78t-66 -210z" />
    <glyph glyph-name="D" unicode="D" horiz-adv-x="626" 
d="M576 323q0 -149 -73.5 -236t-218.5 -87h-204v650h204q144 0 218 -88.5t74 -238.5zM136 50h148q119 0 178 74.5t59 200.5t-59 200.5t-178 74.5h-148v-550z" />
    <glyph glyph-name="E" unicode="E" horiz-adv-x="534" 
d="M80 0v650h394v-50h-338v-240h283v-50h-283v-260h348v-50h-404z" />
    <glyph glyph-name="F" unicode="F" horiz-adv-x="534" 
d="M80 0v650h404v-50h-348v-240h283v-50h-283v-310h-56z" />
    <glyph glyph-name="G" unicode="G" horiz-adv-x="662" 
d="M559 260h-233v45h286v-30q0 -135 -68 -212.5t-198 -77.5q-134 0 -215 90t-81 247t81 250t215 93q165 0 245 -133l-49 -31q-65 112 -196 112q-106 0 -172 -78t-66 -210q0 -131 66 -209.5t172 -78.5q105 0 159 58.5t54 164.5z" />
    <glyph glyph-name="H" unicode="H" horiz-adv-x="644" 
d="M136 310v-310h-56v650h56v-295h373v295h55v-650h-55v310h-373z" />
    <glyph glyph-name="I" unicode="I" 
d="M136 650v-650h-56v650h56z" />
    <glyph glyph-name="J" unicode="J" horiz-adv-x="371" 
d="M291 650v-491q0 -174 -142 -174q-32 0 -62.5 13t-46.5 30l26 43q44 -35 81 -35q40 0 64 32t24 100v482h56z" />
    <glyph glyph-name="K" unicode="K" horiz-adv-x="591" 
d="M514 650l-228 -273l265 -377h-70l-235 336l-110 -130v-206h-56v650h56v-368l309 368h69z" />
    <glyph glyph-name="L" unicode="L" horiz-adv-x="529" 
d="M479 0h-399v650h56v-597h343v-53z" />
    <glyph glyph-name="M" unicode="M" horiz-adv-x="761" 
d="M355 120l-219 460v-580h-56v650h76l225 -472l225 472h75v-650h-55v580l-220 -460h-51z" />
    <glyph glyph-name="N" unicode="N" horiz-adv-x="649" 
d="M506 0l-370 567v-567h-56v650h63l370 -567v567h56v-650h-63z" />
    <glyph glyph-name="O" unicode="O" horiz-adv-x="692" 
d="M50 325q0 157 81 248.5t215 91.5t215 -91.5t81 -248.5t-81 -248.5t-215 -91.5t-215 91.5t-81 248.5zM108 325q0 -131 66 -209.5t172 -78.5q107 0 172.5 78t65.5 210t-65.5 210t-172.5 78q-106 0 -172 -78t-66 -210z" />
    <glyph glyph-name="P" unicode="P" horiz-adv-x="576" 
d="M136 231v-231h-56v650h201q245 0 245 -206q0 -108 -65.5 -160.5t-179.5 -52.5h-145zM136 278h135q95 0 147 37t52 129q0 91 -51 124.5t-148 33.5h-135v-324z" />
    <glyph glyph-name="Q" unicode="Q" horiz-adv-x="692" 
d="M50 325q0 157 81 248.5t215 91.5t215 -91.5t81 -248.5q0 -148 -72.5 -238t-193.5 -100q4 -75 36.5 -115t91.5 -40q19 0 37 7v-50q-16 -8 -47 -8q-39 0 -70 14.5t-49.5 36.5t-31 51t-17.5 54t-6 49q-124 9 -197 99.5t-73 239.5zM108 325q0 -131 66 -209.5t172 -78.5
q107 0 172.5 78t65.5 210t-65.5 210t-172.5 78q-106 0 -172 -78t-66 -210z" />
    <glyph glyph-name="R" unicode="R" horiz-adv-x="606" 
d="M136 231v-231h-56v650h201q245 0 245 -206q0 -147 -124 -194l154 -250h-64l-144 236q-29 -5 -67 -5h-145zM136 278h135q95 0 147 37t52 129q0 91 -51 124.5t-148 33.5h-135v-324z" />
    <glyph glyph-name="S" unicode="S" horiz-adv-x="583" 
d="M533 171q0 -90 -69 -138t-176 -48q-72 0 -139 26.5t-103 89.5l39 35q68 -99 203 -99q84 0 136.5 32.5t52.5 101.5q0 61 -41 90.5t-135 51.5q-32 8 -42 10t-38 10t-38 12.5t-31.5 14t-30 17.5t-22 21.5t-19 27.5t-10 33t-4.5 41q0 73 60.5 119t166.5 46q137 0 218 -75
l-39 -43q-45 39 -85.5 52.5t-93.5 13.5q-81 0 -126 -33.5t-45 -79.5q0 -26 8.5 -45t21 -31.5t38.5 -23.5t48 -17t62 -16q46 -11 73 -19t61.5 -24t53 -34.5t32 -49t13.5 -69.5z" />
    <glyph glyph-name="T" unicode="T" horiz-adv-x="602" 
d="M552 650v-50h-223v-600h-56v600h-223v50h502z" />
    <glyph glyph-name="U" unicode="U" horiz-adv-x="645" 
d="M70 260v390h56v-400q0 -97 52 -154.5t144 -57.5q93 0 145 57t52 155v400h56v-390q0 -127 -67 -201t-186 -74q-118 0 -185 74t-67 201z" />
    <glyph glyph-name="V" unicode="V" horiz-adv-x="647" 
d="M325 68l223 582h59l-255 -650h-57l-255 650h59z" />
    <glyph glyph-name="W" unicode="W" horiz-adv-x="884" 
d="M634 70l150 580h60l-174 -650h-64l-164 568l-164 -568h-65l-173 650h60l149 -580l163 580h60z" />
    <glyph glyph-name="X" unicode="X" horiz-adv-x="628" 
d="M40 0l243 334l-223 316h67l187 -275l192 275h62l-224 -310l244 -340h-67l-208 294l-211 -294h-62z" />
    <glyph glyph-name="Y" unicode="Y" horiz-adv-x="602" 
d="M562 650l-233 -413v-237h-56v237l-233 413h62l199 -360l199 360h62z" />
    <glyph glyph-name="Z" unicode="Z" horiz-adv-x="569" 
d="M508 599l-384 -548h385v-51h-449v51l385 549h-365v50h428v-51z" />
    <glyph glyph-name="bracketleft" unicode="[" horiz-adv-x="285" 
d="M255 703v-53h-119v-747h119v-53h-175v853h175z" />
    <glyph glyph-name="backslash" unicode="\" horiz-adv-x="424" 
d="M373 -134l-373 804l51 24l373 -804z" />
    <glyph glyph-name="bracketright" unicode="]" horiz-adv-x="285" 
d="M30 650v53h175v-853h-175v53h119v747h-119z" />
    <glyph glyph-name="asciicircum" unicode="^" horiz-adv-x="454" 
d="M30 442l199 228l195 -226l-39 -41l-156 188l-159 -188z" />
    <glyph glyph-name="underscore" unicode="_" horiz-adv-x="575" 
d="M70 0v53h435v-53h-435z" />
    <glyph glyph-name="grave" unicode="`" horiz-adv-x="183" 
d="M10 650h69l94 -189h-48z" />
    <glyph glyph-name="a" unicode="a" horiz-adv-x="499" 
d="M102 368l-29 42q48 40 90 52.5t89 12.5q161 0 161 -188v-213q0 -27 10 -36t36 -7v-43q-46 -4 -66 5q-16 7 -24.5 19t-9.5 19t-2 19q-67 -65 -162 -65q-71 0 -113 37.5t-42 98.5q0 38 14 67t41.5 46.5t55.5 28.5t69 15.5t69 6t68 1.5q3 61 -21 100t-83 39q-80 0 -151 -57z
M357 106v132q-83 0 -137 -8.5t-79 -26t-33 -36t-8 -46.5q0 -39 28 -63t79 -24q78 0 150 72z" />
    <glyph glyph-name="b" unicode="b" horiz-adv-x="578" 
d="M131 94v-94h-51v650h56v-266q22 41 68.5 66t105.5 25q98 0 158 -68t60 -177t-60 -177t-158 -68q-55 0 -104 27.5t-75 81.5zM132 230q2 -84 49 -138.5t122 -54.5q77 0 123 55t46 138q0 82 -46 137t-123 55q-82 0 -126.5 -54t-44.5 -138z" />
    <glyph glyph-name="c" unicode="c" horiz-adv-x="508" 
d="M106 230q0 -82 47.5 -137t125.5 -55q95 0 142 67l37 -34q-64 -86 -179 -86q-101 0 -165 68t-64 177q0 108 64 176.5t165 68.5q110 0 174 -85l-37 -35q-48 68 -137 68q-78 0 -125.5 -55.5t-47.5 -137.5z" />
    <glyph glyph-name="d" unicode="d" horiz-adv-x="578" 
d="M447 0v94q-26 -54 -75 -81.5t-104 -27.5q-98 0 -158 68t-60 177t60 177t158 68q59 0 105.5 -25t68.5 -66v266h56v-650h-51zM446 230q0 84 -44.5 138t-126.5 54q-77 0 -123 -55t-46 -137q0 -83 46 -138t123 -55q75 0 122 54.5t49 138.5z" />
    <glyph glyph-name="e" unicode="e" horiz-adv-x="530" 
d="M50 230q0 108 61.5 176.5t153.5 68.5q106 0 160.5 -66t54.5 -179v-12h-374q3 -80 47 -130.5t125 -50.5q97 0 154 70l37 -33q-67 -89 -194 -89q-107 0 -166 67t-59 178zM265 423q-61 0 -103.5 -43t-52.5 -114h312q-6 74 -45 115.5t-111 41.5z" />
    <glyph glyph-name="f" unicode="f" horiz-adv-x="330" 
d="M117 412h-77v48h77v70q0 49 28.5 83.5t88.5 34.5q49 0 76 -18l-13 -41q-28 11 -63 11q-61 0 -61 -86v-54h101v-48h-101v-412h-56v412z" />
    <glyph glyph-name="g" unicode="g" horiz-adv-x="578" 
d="M447 366v94h51v-404q0 -124 -57 -189.5t-166 -65.5q-149 0 -197 114l46 21q36 -82 151 -82q167 0 167 202v20q-22 -41 -68.5 -66t-105.5 -25q-98 0 -158 68t-60 177t60 177t158 68q55 0 104 -27.5t75 -81.5zM446 230q-2 84 -49 138.5t-122 54.5q-77 0 -123 -55t-46 -138
q0 -82 46 -137t123 -55q82 0 126.5 54t44.5 138z" />
    <glyph glyph-name="h" unicode="h" horiz-adv-x="553" 
d="M136 240v-240h-56v650h56v-284q24 57 69 83t95 26q34 0 63 -9t55 -30t40.5 -62t14.5 -99v-275h-56v260q0 79 -26 121t-98 42q-67 0 -112 -53t-45 -130z" />
    <glyph glyph-name="i" unicode="i" 
d="M80 0v460h56v-460h-56zM67 617q0 17 12 29t29 12t29 -12t12 -29t-12 -29t-29 -12t-29 12t-12 29z" />
    <glyph glyph-name="j" unicode="j" 
d="M136 460v-510q0 -138 -107 -138q-29 0 -46 13l13 40q17 -7 33 -7q51 0 51 83v519h56zM67 617q0 17 12 29t29 12t29 -12t12 -29t-12 -29t-29 -12t-29 12t-12 29z" />
    <glyph glyph-name="k" unicode="k" horiz-adv-x="491" 
d="M136 216l232 244h75l-192 -195l210 -265h-72l-178 225l-75 -80v-145h-56v650h56v-434z" />
    <glyph glyph-name="l" unicode="l" 
d="M136 650v-650h-56v650h56z" />
    <glyph glyph-name="m" unicode="m" horiz-adv-x="790" 
d="M423 240v-240h-56v260q0 79 -20.5 121t-78.5 42q-59 0 -95.5 -52.5t-36.5 -130.5v-240h-56v460h51v-94q49 109 144 109q108 0 133 -111h5q20 57 60.5 84t88.5 27q63 0 105.5 -45t42.5 -155v-275h-56v260q0 79 -20.5 121t-78.5 42q-59 0 -95.5 -52.5t-36.5 -130.5z" />
    <glyph glyph-name="n" unicode="n" horiz-adv-x="553" 
d="M136 240v-240h-56v460h51v-94q26 57 72.5 83t96.5 26q34 0 63 -9t55 -30t40.5 -62t14.5 -99v-275h-56v260q0 79 -26 121t-98 42q-67 0 -112 -53t-45 -130z" />
    <glyph glyph-name="o" unicode="o" horiz-adv-x="554" 
d="M50 230q0 109 63 177t164 68t164 -68t63 -177t-62.5 -177t-164.5 -68q-101 0 -164 68t-63 177zM106 230q0 -82 46.5 -137t124.5 -55q79 0 125 55t46 137q0 83 -46 138t-125 55q-78 0 -124.5 -55t-46.5 -138z" />
    <glyph glyph-name="p" unicode="p" horiz-adv-x="578" 
d="M131 460v-94q26 54 75 81.5t104 27.5q98 0 158 -68t60 -177t-60 -177t-158 -68q-59 0 -105.5 25t-68.5 66v-260h-56v644h51zM132 230q0 -84 44.5 -138t126.5 -54q77 0 123 55t46 137q0 83 -46 138t-123 55q-75 0 -122 -54.5t-49 -138.5z" />
    <glyph glyph-name="q" unicode="q" horiz-adv-x="578" 
d="M447 366v94h51v-644h-56v260q-22 -41 -68.5 -66t-105.5 -25q-98 0 -158 68t-60 177t60 177t158 68q55 0 104 -27.5t75 -81.5zM446 230q-2 84 -49 138.5t-122 54.5q-77 0 -123 -55t-46 -138q0 -82 46 -137t123 -55q82 0 126.5 54t44.5 138z" />
    <glyph glyph-name="r" unicode="r" horiz-adv-x="397" 
d="M136 230v-230h-56v460h51v-107q46 122 169 122q36 0 57 -12l-13 -46q-20 7 -44 7q-73 0 -118.5 -57.5t-45.5 -136.5z" />
    <glyph glyph-name="s" unicode="s" horiz-adv-x="468" 
d="M397 417l-31 -42q-65 48 -139 48q-50 0 -79 -20t-29 -55q0 -26 21.5 -43t42 -23t65.5 -14q7 -1 10 -2q34 -7 58.5 -15t50 -23t38.5 -40t13 -59q0 -62 -46.5 -103t-131.5 -41q-59 0 -109 25t-81 69l35 37q64 -78 160 -78q48 0 82 22.5t34 68.5q0 19 -8.5 33t-17.5 22.5
t-31.5 15.5t-33.5 9.5t-40 8.5q-31 6 -49 10.5t-44 15t-40 23t-24.5 33.5t-10.5 48q0 61 49 94t121 33q100 0 165 -58z" />
    <glyph glyph-name="t" unicode="t" horiz-adv-x="337" 
d="M60 460h59v120h56v-120h89v-48h-89v-293q0 -32 2 -47.5t12.5 -27.5t31.5 -12q13 0 48 7l8 -41q-6 -5 -29 -9t-37 -4q-31 0 -50.5 9.5t-28 29t-11 36.5t-2.5 43v309h-59v48z" />
    <glyph glyph-name="u" unicode="u" horiz-adv-x="553" 
d="M417 220v240h56v-460h-51v94q-49 -109 -164 -109q-34 0 -63.5 9t-56.5 30t-42.5 62t-15.5 99v275h56v-260q0 -77 28 -120t101 -43q67 0 109.5 53t42.5 130z" />
    <glyph glyph-name="v" unicode="v" horiz-adv-x="504" 
d="M253 56l160 404h61l-190 -460h-64l-190 460h61z" />
    <glyph glyph-name="w" unicode="w" horiz-adv-x="708" 
d="M500 76l108 384h60l-137 -460h-60l-117 395l-117 -395h-60l-137 460h60l108 -384l112 384h66z" />
    <glyph glyph-name="x" unicode="x" horiz-adv-x="491" 
d="M40 0l174 240l-159 220h70l120 -180l121 180h70l-160 -220l175 -240h-70l-136 199l-135 -199h-70z" />
    <glyph glyph-name="y" unicode="y" horiz-adv-x="512" 
d="M472 460l-190 -488q-42 -108 -81.5 -138t-114.5 -18v54q63 -6 90.5 16.5t53.5 94.5l7 19l-197 460h63l164 -386l147 386h58z" />
    <glyph glyph-name="z" unicode="z" horiz-adv-x="470" 
d="M337 412h-267v48h330v-48l-275 -364h285v-48h-350v48z" />
    <glyph glyph-name="braceleft" unicode="{" horiz-adv-x="268" 
d="M30 252v46q21 0 42 23t21 53v188q0 87 34.5 122t110.5 20v-53q-49 14 -69 -5.5t-20 -74.5v-198q0 -61 -60 -98q60 -37 60 -98v-195q0 -55 20 -74.5t69 -5.5v-53q-76 -15 -110.5 20t-34.5 122v185q0 30 -21 53t-42 23z" />
    <glyph glyph-name="bar" unicode="|" 
d="M136 703v-853h-56v853h56z" />
    <glyph glyph-name="braceright" unicode="}" horiz-adv-x="268" 
d="M238 298v-46q-21 0 -42 -23t-21 -53v-185q0 -87 -34.5 -122t-110.5 -20v53q49 -14 69 5.5t20 74.5v195q0 61 60 98q-60 37 -60 98v198q0 55 -20 74.5t-69 5.5v53q76 15 110.5 -20t34.5 -122v-188q0 -30 21 -53t42 -23z" />
    <glyph glyph-name="asciitilde" unicode="~" horiz-adv-x="572" 
d="M225 296l146 -51q103 -36 100 65l51 -13q-10 -155 -175 -98l-146 51q-50 17 -75.5 -0.5t-24.5 -69.5l-51 13q5 78 47.5 102t127.5 1z" />
    <glyph glyph-name="sterling" unicode="&#xa3;" horiz-adv-x="593" 
d="M20 358v53h99q-3 18 -3 39q0 96 52.5 155.5t144.5 59.5q120 0 188 -75l-39 -43q-34 35 -68 50.5t-81 15.5q-67 0 -104 -47t-37 -116q0 -21 3 -39h220v-53h-203q3 -6 8 -17.5t9 -21t7 -18.5h179v-53h-168q4 -60 -21 -131q45 16 90 -10l86 -51q45 -26 73.5 -7t26.5 72
l51 -13q-5 -81 -53 -110.5t-122 12.5l-86 51q-45 26 -73.5 5t-26.5 -75l-51 13q3 39 15 69q42 110 35 175h-151v53h138q-3 7 -11.5 26t-13.5 31h-113z" />
    <glyph glyph-name="currency" unicode="&#xa4;" horiz-adv-x="479" 
d="M70 78l56 98q-66 51 -66 155t66 155l-56 97l49 28l57 -100q33 10 63 10q33 0 62 -9l58 99l49 -28l-56 -97q67 -52 67 -155q0 -105 -68 -156l57 -97l-49 -28l-58 100q-29 -9 -62 -9q-34 0 -62 9l-58 -100zM116 331q0 -74 35.5 -108.5t87.5 -34.5t87.5 34.5t35.5 108.5
t-35.5 108.5t-87.5 34.5t-87.5 -34.5t-35.5 -108.5z" />
    <glyph glyph-name="brokenbar" unicode="&#xa6;" 
d="M136 -150h-56v381h56v-381zM136 703v-382h-56v382h56z" />
    <glyph glyph-name="section" unicode="&#xa7;" horiz-adv-x="437" 
d="M70 86l46 26q31 -75 111 -75q37 0 61 20t24 45t-24.5 45.5t-59.5 37t-70 36t-59.5 50.5t-24.5 72q0 61 55 109q-59 38 -59 85q0 63 40 95.5t100 32.5t101.5 -30t55.5 -72l-46 -26q-31 75 -111 75q-37 0 -61 -20t-24 -45t24.5 -45.5t59.5 -37t70 -36t59.5 -50.5t24.5 -72
q0 -60 -55 -110q59 -38 59 -84q0 -63 -40 -95.5t-100 -32.5t-101.5 30t-55.5 72zM308 306q0 24 -18.5 45.5t-39.5 34t-57 31.5q-9 5 -14 7q-34 -29 -43 -49q-7 -15 -7 -32q0 -19 9 -35t28 -30t36 -24t43 -23l12 -6l7 6q7 6 8.5 7.5t8 7.5t9 9.5t7 10t6.5 12t3.5 13t1.5 15.5
z" />
    <glyph glyph-name="copyright" unicode="&#xa9;" horiz-adv-x="589" 
d="M50 230q0 101 71.5 173t172.5 72t173 -72t72 -173t-72 -173t-173 -72t-172.5 72t-71.5 173zM101 230q0 -81 55 -137t138 -56t138 56t55 137t-55 137t-138 56t-138 -56t-55 -137zM199 230q0 -42 27 -70t69 -28q31 0 53.5 17t32.5 39l39 -24q-18 -34 -51.5 -54.5
t-73.5 -20.5q-59 0 -100 41.5t-41 99.5t41 99.5t100 41.5q40 0 73.5 -21t51.5 -55l-39 -24q-10 22 -32 39.5t-54 17.5q-42 0 -69 -28t-27 -70z" />
    <glyph glyph-name="guillemotleft" unicode="&#xab;" horiz-adv-x="420" 
d="M30 245l186 235l40 -33l-158 -202l158 -202l-40 -33zM370 77l-42 -34l-158 202l158 192l42 -36l-133 -156z" />
    <glyph glyph-name="uni00AD" unicode="&#xad;" horiz-adv-x="435" 
d="M50 218v53h335v-53h-335z" />
    <glyph glyph-name="registered" unicode="&#xae;" horiz-adv-x="569" 
d="M340 115l-34 75h-69v-75h-43v228h110q32 -1 54 -23.5t22 -53.5q0 -21 -11 -40t-28 -28l49 -83h-50zM334 266q0 46 -52 46h-45v-91h45q52 0 52 45zM40 230q0 101 71.5 173t172.5 72t173 -72t72 -173t-72 -173t-173 -72t-172.5 72t-71.5 173zM91 230q0 -81 55 -137t138 -56
t138 56t55 137t-55 137t-138 56t-138 -56t-55 -137z" />
    <glyph glyph-name="degree" unicode="&#xb0;" horiz-adv-x="259" 
d="M20 555q0 46 31.5 78t77.5 32t78 -32t32 -78t-32 -77.5t-78 -31.5t-77.5 31.5t-31.5 77.5zM68 555q0 -28 16.5 -44.5t44.5 -16.5t44.5 16.5t16.5 44.5t-16.5 44.5t-44.5 16.5t-44.5 -16.5t-16.5 -44.5z" />
    <glyph glyph-name="plusminus" unicode="&#xb1;" horiz-adv-x="515" 
d="M70 328v53h161v151h53v-151h161v-53h-161v-151h-53v151h-161zM70 88v53h375v-53h-375z" />
    <glyph glyph-name="paragraph" unicode="&#xb6;" horiz-adv-x="471" 
d="M30 515q0 77 54 131t131 54h56v-760h-56v390q-77 0 -131 54t-54 131zM391 700v-760h-56v760h56z" />
    <glyph glyph-name="periodcentered" unicode="&#xb7;" horiz-adv-x="242" 
d="M80 246q0 17 12 29t29 12t29 -12t12 -29t-12 -29t-29 -12t-29 12t-12 29z" />
    <glyph glyph-name="guillemotright" unicode="&#xbb;" horiz-adv-x="420" 
d="M204 480l186 -235l-186 -235l-40 33l158 202l-158 202zM92 43l-42 34l133 168l-133 156l42 36l158 -192z" />
    <glyph glyph-name="afii10023" unicode="&#x401;" horiz-adv-x="534" 
d="M140 787q0 17 12 29t29 12t29 -12t12 -29t-12 -29t-29 -12t-29 12t-12 29zM350 787q0 17 12 29t29 12t29 -12t12 -29t-12 -29t-29 -12t-29 12t-12 29zM80 0v650h394v-50h-338v-240h283v-50h-283v-260h348v-50h-404z" />
    <glyph glyph-name="afii10051" unicode="&#x402;" horiz-adv-x="696" 
d="M452 650v-50h-173v-234q24 57 69 83t95 26q34 0 63 -9t55 -30t40.5 -62t14.5 -99v-152q0 -138 -107 -138q-29 0 -46 13l13 40q18 -7 33 -7q51 0 51 83v146q0 79 -26 121t-98 42q-66 0 -110.5 -51t-46.5 -125v-247h-56v600h-173v50h402z" />
    <glyph glyph-name="afii10052" unicode="&#x403;" horiz-adv-x="509" 
d="M294 909h59l-75 -189h-48q63 189 64 189zM459 650v-50h-323v-600h-56v650h379z" />
    <glyph glyph-name="afii10053" unicode="&#x404;" horiz-adv-x="641" 
d="M346 613q-99 0 -163.5 -68t-73.5 -185h336l1 -50h-338q4 -125 69.5 -199t168.5 -74q132 0 196 113l49 -31q-79 -134 -245 -134q-134 0 -215 91.5t-81 248.5t81 248.5t215 91.5q165 0 245 -133l-49 -31q-65 112 -196 112z" />
    <glyph glyph-name="afii10054" unicode="&#x405;" horiz-adv-x="583" 
d="M533 171q0 -90 -69 -138t-176 -48q-72 0 -139 26.5t-103 89.5l39 35q68 -99 203 -99q84 0 136.5 32.5t52.5 101.5q0 61 -41 90.5t-135 51.5q-32 8 -42 10t-38 10t-38 12.5t-31.5 14t-30 17.5t-22 21.5t-19 27.5t-10 33t-4.5 41q0 73 60.5 119t166.5 46q137 0 218 -75
l-39 -43q-45 39 -85.5 52.5t-93.5 13.5q-81 0 -126 -33.5t-45 -79.5q0 -26 8.5 -45t21 -31.5t38.5 -23.5t48 -17t62 -16q46 -11 73 -19t61.5 -24t53 -34.5t32 -49t13.5 -69.5z" />
    <glyph glyph-name="uni0406" unicode="&#x406;" 
d="M136 650v-650h-56v650h56z" />
    <glyph glyph-name="afii10056" unicode="&#x407;" 
d="M136 650v-650h-56v650h56zM2 787q0 17 12 29t29 12t29 -12t12 -29t-12 -29t-29 -12t-29 12t-12 29zM132 787q0 17 12 29t29 12t29 -12t12 -29t-12 -29t-29 -12t-29 12t-12 29z" />
    <glyph glyph-name="afii10057" unicode="&#x408;" horiz-adv-x="371" 
d="M291 650v-491q0 -174 -142 -174q-32 0 -62.5 13t-46.5 30l24 40q40 -32 83 -32q40 0 64 32t24 100v482h56z" />
    <glyph glyph-name="afii10058" unicode="&#x409;" horiz-adv-x="933" 
d="M523 650v-231h115q114 0 179.5 -52.5t65.5 -160.5q0 -206 -245 -206h-171v600h-256v-153q0 -58 -1 -95.5t-5 -95.5t-14 -96.5t-26 -78.5t-42.5 -63t-62.5 -30q-10 -2 -50 -2v49q29 0 43 3q103 20 103 369v243h367zM628 372h-105v-324h105q97 0 148 33.5t51 124.5
q0 92 -52 129t-147 37z" />
    <glyph glyph-name="afii10059" unicode="&#x40a;" horiz-adv-x="934" 
d="M524 650v-231h115q114 0 179.5 -52.5t65.5 -160.5q0 -206 -245 -206h-170v310h-333v-310h-56v650h56v-295h333v295h55zM629 372h-105v-324h105q97 0 148 33.5t51 124.5q0 92 -52 129t-147 37z" />
    <glyph glyph-name="afii10060" unicode="&#x40b;" horiz-adv-x="696" 
d="M452 650v-50h-173v-234q24 57 69 83t95 26q34 0 63 -9t55 -30t40.5 -62t14.5 -99v-275h-56v260q0 79 -26 121t-98 42q-66 0 -110.5 -51t-46.5 -125v-247h-56v600h-173v50h402z" />
    <glyph glyph-name="afii10061" unicode="&#x40c;" horiz-adv-x="621" 
d="M136 650v-295h60q32 0 59.5 14.5t48 41.5t33.5 51.5t27 57.5q33 83 74 115.5t106 21.5v-51q-54 7 -83.5 -22t-52.5 -87q-55 -139 -125 -156v-7q38 -9 76 -56.5t62 -106.5q32 -79 63 -107.5t87 -17.5v-51q-4 -2 -16 -3.5t-21 -1.5h-10q-88 0 -147 144q-41 102 -81.5 139
t-103.5 37h-56v-310h-56v650h56zM314 909h59l-75 -189h-48q63 189 64 189z" />
    <glyph glyph-name="afii10062" unicode="&#x40e;" horiz-adv-x="587" 
d="M549 650l-213 -505q-38 -90 -71.5 -125t-80.5 -35q-20 0 -41 10t-30 21l28 41q23 -20 42 -20q29 0 51 28t46 88l8 20l-248 477h65l211 -415l173 415h60zM400 857h53q0 -73 -45.5 -107.5t-109.5 -34.5t-109.5 34.5t-45.5 107.5h53q0 -44 25.5 -70.5t76.5 -26.5t76.5 26.5
t25.5 70.5z" />
    <glyph glyph-name="afii10145" unicode="&#x40f;" horiz-adv-x="645" 
d="M509 50v600h56v-650h-214v-156h-56v156h-215v650h56v-600h373z" />
    <glyph glyph-name="afii10017" unicode="&#x410;" horiz-adv-x="617" 
d="M530 0l-61 163h-321l-61 -163h-57l250 650h57l250 -650h-57zM308 591l-143 -383h287z" />
    <glyph glyph-name="afii10018" unicode="&#x411;" horiz-adv-x="586" 
d="M479 650v-50h-343v-211h165q111 0 173 -43.5t62 -149.5q0 -196 -235 -196h-221v650h399zM291 342h-155v-294h155q44 0 74 5t58.5 20t42.5 45.5t14 77.5q0 38 -10 65t-26 42.5t-42 24.5t-51 11.5t-60 2.5z" />
    <glyph glyph-name="afii10019" unicode="&#x412;" horiz-adv-x="598" 
d="M80 0v650h231q103 0 154.5 -41.5t51.5 -118.5q0 -49 -25.5 -90.5t-70.5 -55.5v-5q57 -9 92 -56t35 -103q0 -82 -55 -131t-161 -49h-252zM136 312v-267h199q77 0 117 37.5t40 97.5t-40 96t-117 36h-199zM136 357h179q74 0 110.5 35.5t36.5 97.5q0 115 -148 115h-178v-248z
" />
    <glyph glyph-name="afii10020" unicode="&#x413;" horiz-adv-x="509" 
d="M459 650v-50h-323v-600h-56v650h379z" />
    <glyph glyph-name="afii10021" unicode="&#x414;" horiz-adv-x="656" 
d="M20 -156v206h20q117 0 115 395v13v192h405v-600h76v-206h-56v156h-504v-156h-56zM208 600v-113q0 -212 -17 -301q-21 -115 -70 -136h383v550h-296z" />
    <glyph glyph-name="afii10022" unicode="&#x415;" horiz-adv-x="534" 
d="M80 0v650h394v-50h-338v-240h283v-50h-283v-260h348v-50h-404z" />
    <glyph glyph-name="afii10024" unicode="&#x416;" horiz-adv-x="956" 
d="M450 355v295h56v-295h51q14 0 26 3t22.5 10t18.5 13t16.5 19t14 20.5t13 24.5t10.5 24t11 26.5t10 24.5q33 83 74 115.5t106 21.5v-51q-54 7 -83.5 -22t-52.5 -87q-58 -145 -105 -156v-7q36 -9 63 -51t55 -112q32 -79 63 -107.5t87 -17.5v-51q-4 -2 -16 -3.5t-22 -1.5h-9
q-88 0 -147 144q-42 107 -72 141.5t-83 34.5h-51v-310h-56v310h-51q-53 0 -83 -34.5t-72 -141.5q-59 -144 -147 -144q-37 0 -47 5v51q56 -11 87 17.5t63 107.5q13 33 23.5 55t25.5 47.5t32.5 40.5t36.5 20v7q-47 11 -105 156q-23 58 -52.5 87t-83.5 22v51q65 11 106 -21.5
t74 -115.5q2 -5 10 -24.5t11 -26.5t10.5 -24t13 -24.5t14 -20.5t16.5 -19t18.5 -13t22.5 -10t26 -3h51z" />
    <glyph glyph-name="afii10025" unicode="&#x417;" horiz-adv-x="606" 
d="M49 108l39 39q37 -50 90.5 -79t111.5 -29q90 0 145.5 38t55.5 111q0 32 -12.5 56.5t-31.5 38.5t-45.5 23t-50.5 12t-51 3h-58v49h53q80 0 123.5 32.5t43.5 89.5q0 121 -168 121q-47 0 -99.5 -25.5t-81.5 -72.5l-41 36q38 60 102.5 87t129.5 27q104 0 162.5 -44t58.5 -125
q0 -51 -28 -91t-88 -48v-6q147 -26 147 -162q0 -82 -65 -143t-188 -61q-167 0 -254 123z" />
    <glyph glyph-name="afii10026" unicode="&#x418;" horiz-adv-x="649" 
d="M513 573l-370 -573h-63v650h56v-573l370 573h63v-650h-56v573z" />
    <glyph glyph-name="afii10027" unicode="&#x419;" horiz-adv-x="649" 
d="M513 573l-370 -573h-63v650h56v-573l370 573h63v-650h-56v573zM430 857h53q0 -73 -45.5 -107.5t-109.5 -34.5t-109.5 34.5t-45.5 107.5h53q0 -44 25.5 -70.5t76.5 -26.5t76.5 26.5t25.5 70.5z" />
    <glyph glyph-name="afii10028" unicode="&#x41a;" horiz-adv-x="621" 
d="M136 650v-295h60q32 0 59.5 14.5t48 41.5t33.5 51.5t27 57.5q33 83 74 115.5t106 21.5v-51q-54 7 -83.5 -22t-52.5 -87q-55 -139 -125 -156v-7q38 -9 76 -56.5t62 -106.5q32 -79 63 -107.5t87 -17.5v-51q-4 -2 -16 -3.5t-21 -1.5h-10q-88 0 -147 144q-41 102 -81.5 139
t-103.5 37h-56v-310h-56v650h56z" />
    <glyph glyph-name="afii10029" unicode="&#x41b;" horiz-adv-x="643" 
d="M211 600v-153q0 -58 -1 -95.5t-5 -95.5t-14 -96.5t-26 -78.5t-42.5 -63t-62.5 -30q-10 -2 -50 -2v49q29 0 43 3q103 20 103 369v243h407v-650h-56v600h-296z" />
    <glyph glyph-name="afii10030" unicode="&#x41c;" horiz-adv-x="761" 
d="M355 120l-219 460v-580h-56v650h76l225 -472l225 472h75v-650h-55v580l-220 -460h-51z" />
    <glyph glyph-name="afii10031" unicode="&#x41d;" horiz-adv-x="644" 
d="M136 310v-310h-56v650h56v-295h373v295h55v-650h-55v310h-373z" />
    <glyph glyph-name="afii10032" unicode="&#x41e;" horiz-adv-x="692" 
d="M50 325q0 157 81 248.5t215 91.5t215 -91.5t81 -248.5t-81 -248.5t-215 -91.5t-215 91.5t-81 248.5zM108 325q0 -131 66 -209.5t172 -78.5q107 0 172.5 78t65.5 210t-65.5 210t-172.5 78q-106 0 -172 -78t-66 -210z" />
    <glyph glyph-name="afii10033" unicode="&#x41f;" horiz-adv-x="645" 
d="M136 600v-600h-56v650h485v-650h-56v600h-373z" />
    <glyph glyph-name="afii10034" unicode="&#x420;" horiz-adv-x="586" 
d="M136 231v-231h-56v650h201q245 0 245 -206q0 -108 -65.5 -160.5t-179.5 -52.5h-145zM136 278h135q95 0 147 37t52 129q0 91 -51 124.5t-148 33.5h-135v-324z" />
    <glyph glyph-name="afii10035" unicode="&#x421;" horiz-adv-x="641" 
d="M108 325q0 -131 66 -209.5t172 -78.5q132 0 196 113l49 -31q-79 -134 -245 -134q-134 0 -215 90t-81 247t81 250t215 93q165 0 245 -133l-49 -31q-65 112 -196 112q-106 0 -172 -78t-66 -210z" />
    <glyph glyph-name="afii10036" unicode="&#x422;" horiz-adv-x="602" 
d="M552 650v-50h-223v-600h-56v600h-223v50h502z" />
    <glyph glyph-name="afii10037" unicode="&#x423;" horiz-adv-x="587" 
d="M549 650l-213 -505q-38 -90 -71.5 -125t-80.5 -35q-20 0 -41 10t-30 21l28 41q23 -20 42 -20q29 0 51 28t46 88l8 20l-248 477h65l211 -415l173 415h60z" />
    <glyph glyph-name="afii10038" unicode="&#x424;" horiz-adv-x="742" 
d="M40 325q0 128 80.5 192t223.5 64v69h56v-69q141 0 221.5 -64t80.5 -192t-80 -191.5t-222 -63.5v-70h-56v70q-143 0 -223.5 63.5t-80.5 191.5zM344 533q-119 0 -183.5 -48t-64.5 -160t64.5 -160t183.5 -48v416zM400 533v-416q119 0 182.5 48t63.5 160q0 113 -63.5 160.5
t-182.5 47.5z" />
    <glyph glyph-name="afii10039" unicode="&#x425;" horiz-adv-x="628" 
d="M40 0l243 334l-223 316h67l187 -275l192 275h62l-224 -310l244 -340h-67l-208 294l-211 -294h-62z" />
    <glyph glyph-name="afii10040" unicode="&#x426;" horiz-adv-x="656" 
d="M80 0v650h56v-600h368v600h56v-600h76v-206h-56v156h-500z" />
    <glyph glyph-name="afii10041" unicode="&#x427;" horiz-adv-x="595" 
d="M60 650h56v-200q0 -54 11.5 -89.5t35 -52t48 -22t60.5 -5.5q100 0 188 64v305h56v-650h-56v295q-92 -62 -193 -62q-205 0 -205 202z" />
    <glyph glyph-name="afii10042" unicode="&#x428;" horiz-adv-x="874" 
d="M738 50v600h56v-650h-714v650h56v-600h273v600h56v-600h273z" />
    <glyph glyph-name="afii10043" unicode="&#x429;" horiz-adv-x="890" 
d="M738 50v600h56v-600h76v-206h-56v156h-734v650h56v-600h273v600h56v-600h273z" />
    <glyph glyph-name="afii10044" unicode="&#x42a;" horiz-adv-x="644" 
d="M20 598v52h184v-231h145q114 0 179.5 -52.5t65.5 -160.5q0 -206 -245 -206h-201v598h-128zM339 372h-135v-324h135q97 0 148 33.5t51 124.5q0 92 -52 129t-147 37z" />
    <glyph glyph-name="afii10045" unicode="&#x42b;" horiz-adv-x="776" 
d="M696 650v-650h-56v650h56zM136 650v-231h135q114 0 179.5 -52.5t65.5 -160.5q0 -206 -245 -206h-191v650h56zM261 372h-125v-324h125q97 0 148 33.5t51 124.5q0 92 -52 129t-147 37z" />
    <glyph glyph-name="afii10046" unicode="&#x42c;" horiz-adv-x="576" 
d="M136 650v-231h145q114 0 179.5 -52.5t65.5 -160.5q0 -206 -245 -206h-201v650h56zM271 372h-135v-324h135q97 0 148 33.5t51 124.5q0 92 -52 129t-147 37z" />
    <glyph glyph-name="afii10047" unicode="&#x42d;" horiz-adv-x="641" 
d="M196 310v50h336q-8 119 -67.5 186t-162.5 67q-65 0 -118.5 -29.5t-84.5 -82.5l-49 31q38 63 104.5 98t147.5 35q136 0 212.5 -91t76.5 -250q0 -158 -78.5 -248.5t-217.5 -90.5q-166 0 -245 134l49 31q64 -113 196 -113q108 0 171 73t67 200h-337z" />
    <glyph glyph-name="afii10048" unicode="&#x42e;" horiz-adv-x="912" 
d="M136 310v-310h-56v650h56v-295h135q8 144 88 227t207 83q134 0 215 -91.5t81 -248.5t-81 -248.5t-215 -91.5q-131 0 -211.5 87.5t-84.5 237.5h-134zM328 325q0 -131 66 -209.5t172 -78.5q107 0 172.5 78t65.5 210t-65.5 210t-172.5 78q-106 0 -172 -78t-66 -210z" />
    <glyph glyph-name="afii10049" unicode="&#x42f;" horiz-adv-x="631" 
d="M495 0v271h-92h-36.5t-29 -2.5t-28 -7.5t-22.5 -14t-25.5 -24t-24.5 -37t-29 -52q-1 -1 -11.5 -22.5t-16 -32t-19.5 -30.5t-26 -30.5t-30.5 -19.5t-37.5 -9q-25 0 -37 5v51q10 -3 20 -3t18 1.5t16.5 8t14 11t13.5 14.5t12 16t11 19.5t10 19t10 20t9 18.5q22 46 43 72.5
t52 36.5v5q-76 13 -115 55t-39 120q0 99 69 144.5t186 45.5h191v-650h-56zM350 318h145v284h-125q-47 0 -81.5 -5.5t-65 -20t-46.5 -44t-16 -72.5q0 -84 46.5 -113t142.5 -29z" />
    <glyph glyph-name="afii10065" unicode="&#x430;" horiz-adv-x="499" 
d="M102 368l-29 42q48 40 90 52.5t89 12.5q161 0 161 -188v-213q0 -27 10 -36t36 -7v-43q-46 -4 -66 5q-16 7 -24.5 19t-9.5 19t-2 19q-67 -65 -162 -65q-71 0 -113 37.5t-42 98.5q0 38 14 67t41.5 46.5t55.5 28.5t69 15.5t69 6t68 1.5q3 61 -21 100t-83 39q-80 0 -151 -57z
M357 106v132q-83 0 -137 -8.5t-79 -26t-33 -36t-8 -46.5q0 -39 28 -63t79 -24q78 0 150 72z" />
    <glyph glyph-name="afii10066" unicode="&#x431;" horiz-adv-x="550" 
d="M500 230q0 -109 -62 -177t-163 -68q-109 0 -167 74t-58 201q0 182 58 274t178 117q85 17 109 31q25 15 26 38h44q10 -55 -32.5 -82.5t-116.5 -39.5q-101 -15 -146 -63t-66 -156h5q24 47 72 71.5t94 24.5q101 0 163 -68t62 -177zM106 230q0 -82 45.5 -137t123.5 -55
t123.5 54.5t45.5 137.5t-45 138t-124 55q-78 0 -123.5 -55t-45.5 -138z" />
    <glyph glyph-name="afii10067" unicode="&#x432;" horiz-adv-x="491" 
d="M291 0h-211v460h197q62 0 99.5 -29t37.5 -82q0 -38 -22 -66.5t-56 -32.5v-6q44 -2 74.5 -33t30.5 -86q0 -59 -40 -92t-110 -33zM136 221v-173h156q89 0 89 87q0 38 -29 62t-80 24h-136zM279 412h-143v-144h132q43 0 65 20.5t22 52.5q0 71 -76 71z" />
    <glyph glyph-name="afii10068" unicode="&#x433;" horiz-adv-x="406" 
d="M136 412v-412h-56v460h286v-48h-230z" />
    <glyph glyph-name="afii10069" unicode="&#x434;" horiz-adv-x="532" 
d="M10 47h21q27 0 51.5 30t35.5 80q12 54 14 303h307v-412h63v-184h-53v136h-386v-137h-53v184zM382 412h-198q-1 -23 -0.5 -47.5t0 -64.5t-3.5 -74q-11 -136 -62 -178h264v364z" />
    <glyph glyph-name="afii10070" unicode="&#x435;" horiz-adv-x="530" 
d="M50 230q0 108 61.5 176.5t153.5 68.5q106 0 160.5 -66t54.5 -179v-12h-374q3 -80 47 -130.5t125 -50.5q97 0 154 70l37 -33q-67 -89 -194 -89q-107 0 -166 67t-59 178zM265 423q-61 0 -103.5 -43t-52.5 -114h312q-6 74 -45 115.5t-111 41.5z" />
    <glyph glyph-name="afii10072" unicode="&#x436;" horiz-adv-x="734" 
d="M339 263v197h56v-197h36q19 0 34 7t29 26.5t19.5 28t19 39.5t14.5 32q20 42 47 62t78 12v-51q-21 2 -34.5 -0.5t-24 -14t-15 -19.5t-15.5 -32q-25 -53 -42.5 -76t-46.5 -32v-6q34 -7 55.5 -36.5t41.5 -79.5q20 -51 43.5 -69t59.5 -12v-48l-31 -4q-13 0 -24.5 2.5t-21 8
t-17 10.5t-15 14t-12 15t-10 16t-7.5 14.5t-6 14.5t-5 11q-32 75 -54.5 97t-64.5 22h-31v-215h-56v215h-31q-42 0 -64.5 -22t-54.5 -97q-1 -1 -5 -11t-6 -14.5t-7.5 -14.5t-10 -16t-12 -15t-15 -14t-17 -10.5t-21 -8t-24.5 -2.5q-24 3 -31 4v48q36 -6 59.5 12t43.5 69
q13 32 23.5 52.5t30 39.5t43.5 24v6q-29 9 -46.5 32t-42.5 76q-11 24 -15.5 32t-15 19.5t-24 14t-34.5 0.5v51q51 8 78 -12t47 -62q3 -6 12.5 -27.5t14.5 -31.5t15.5 -27t20 -25t23.5 -15t30 -7h36z" />
    <glyph glyph-name="afii10073" unicode="&#x437;" horiz-adv-x="486" 
d="M50 77l37 35q60 -77 154 -77q60 0 97 25t37 76q0 46 -35.5 65.5t-87.5 19.5h-64v47h60q106 0 106 75q0 39 -30.5 61.5t-85.5 22.5q-33 0 -73.5 -19t-60.5 -49l-36 36q61 80 177 80q80 0 124.5 -34.5t44.5 -94.5q0 -30 -22.5 -60.5t-61.5 -34.5v-4q50 -3 78 -35t28 -80
q0 -61 -46.5 -104t-144.5 -43q-129 0 -195 92z" />
    <glyph glyph-name="afii10074" unicode="&#x438;" horiz-adv-x="538" 
d="M136 79l261 381h61v-460h-56v381l-261 -381h-61v460h56v-381z" />
    <glyph glyph-name="afii10075" unicode="&#x439;" horiz-adv-x="538" 
d="M347 649h48q0 -73 -36 -105t-89 -32t-89 32t-36 105h50q0 -92 75 -92q77 0 77 92zM136 79l261 381h61v-460h-56v381l-261 -381h-61v460h56v-381z" />
    <glyph glyph-name="afii10076" unicode="&#x43a;" horiz-adv-x="500" 
d="M136 460v-197h60q16 0 30.5 7t23.5 14.5t20.5 25.5t15.5 26.5t14.5 31.5t12.5 27q20 43 47 63t78 12v-51q-28 2 -45 -6.5t-23.5 -19t-20.5 -41.5q-24 -51 -43.5 -74t-48.5 -33v-6q59 -11 100 -116q20 -51 43.5 -69t59.5 -12v-48l-31 -4q-13 0 -24.5 2.5t-21 8t-17 10.5
t-15 14t-12 15t-10 16t-7.5 14.5t-6 14.5t-5 11q-31 73 -56 96t-64 23h-55v-215h-56v460h56z" />
    <glyph glyph-name="afii10077" unicode="&#x43b;" horiz-adv-x="517" 
d="M380 412h-196v-58q0 -59 -1.5 -93t-8 -87.5t-17.5 -87.5q-18 -54 -49.5 -79t-87.5 -17v50q44 -5 64.5 22t33.5 85q12 54 14 313h305v-460h-57v412z" />
    <glyph glyph-name="afii10078" unicode="&#x43c;" horiz-adv-x="624" 
d="M488 0v402l-150 -327h-53l-149 327v-402h-56v460h83l149 -327l149 327h83v-460h-56z" />
    <glyph glyph-name="afii10079" unicode="&#x43d;" horiz-adv-x="533" 
d="M136 215v-215h-56v460h56v-197h261v197h56v-460h-56v215h-261z" />
    <glyph glyph-name="afii10080" unicode="&#x43e;" horiz-adv-x="554" 
d="M50 230q0 109 63 177t164 68t164 -68t63 -177t-62.5 -177t-164.5 -68q-101 0 -164 68t-63 177zM106 230q0 -82 46.5 -137t124.5 -55q79 0 125 55t46 137q0 83 -46 138t-125 55q-78 0 -124.5 -55t-46.5 -138z" />
    <glyph glyph-name="afii10081" unicode="&#x43f;" horiz-adv-x="533" 
d="M136 412v-412h-56v460h373v-460h-56v412h-261z" />
    <glyph glyph-name="afii10082" unicode="&#x440;" horiz-adv-x="578" 
d="M131 460v-94q26 54 75 81.5t104 27.5q98 0 158 -68t60 -177t-60 -177t-158 -68q-59 0 -105.5 25t-68.5 66v-260h-56v644h51zM132 230q0 -84 44.5 -138t126.5 -54q77 0 123 55t46 137q0 83 -46 138t-123 55q-75 0 -122 -54.5t-49 -138.5z" />
    <glyph glyph-name="afii10083" unicode="&#x441;" horiz-adv-x="508" 
d="M106 230q0 -82 47.5 -137t125.5 -55q91 0 140 69l39 -36q-64 -86 -179 -86q-101 0 -165 68t-64 177q0 108 64 176.5t165 68.5q110 0 174 -85l-39 -37q-50 70 -135 70q-78 0 -125.5 -55.5t-47.5 -137.5z" />
    <glyph glyph-name="afii10084" unicode="&#x442;" horiz-adv-x="485" 
d="M214 412h-164v48h385v-48h-165v-412h-56v412z" />
    <glyph glyph-name="afii10085" unicode="&#x443;" horiz-adv-x="512" 
d="M462 460l-190 -488q-42 -108 -81.5 -138t-114.5 -18v54q63 -6 90.5 16.5t53.5 94.5l7 19l-197 460h63l164 -386l147 386h58z" />
    <glyph glyph-name="afii10086" unicode="&#x444;" horiz-adv-x="824" 
d="M384 -184v260q-47 -91 -139 -91q-84 0 -134.5 65t-50.5 180t50.5 180t134.5 65q92 0 139 -94v269h56v-269q47 94 139 94q84 0 134.5 -65t50.5 -180t-50.5 -180t-134.5 -65q-92 0 -139 91v-260h-56zM708 230q0 89 -34 141t-97 52q-57 0 -97 -50t-42 -143
q0 -93 37.5 -142.5t101.5 -49.5q63 0 97 51.5t34 140.5zM116 230q0 -89 34 -140.5t97 -51.5q64 0 101.5 49.5t37.5 142.5q-2 93 -42 143t-97 50q-63 0 -97 -52t-34 -141z" />
    <glyph glyph-name="afii10087" unicode="&#x445;" horiz-adv-x="491" 
d="M40 0l174 240l-159 220h70l120 -180l121 180h70l-160 -220l175 -240h-70l-136 199l-135 -199h-70z" />
    <glyph glyph-name="afii10088" unicode="&#x446;" horiz-adv-x="554" 
d="M136 48h257v412h56v-412h75v-184h-53v136h-391v460h56v-412z" />
    <glyph glyph-name="afii10089" unicode="&#x447;" horiz-adv-x="493" 
d="M357 225v235h56v-460h-56v178q-77 -32 -135 -32q-27 0 -47.5 2.5t-45.5 13t-41 28.5t-27 51.5t-11 80.5v138h56v-149q0 -65 30 -92t93 -27q55 0 128 33z" />
    <glyph glyph-name="afii10090" unicode="&#x448;" horiz-adv-x="713" 
d="M136 48h192v412h57v-412h192v412h56v-460h-553v460h56v-412z" />
    <glyph glyph-name="afii10091" unicode="&#x449;" horiz-adv-x="738" 
d="M633 48h75v-184h-53v136h-575v460h56v-412h192v412h57v-412h192v412h56v-412z" />
    <glyph glyph-name="afii10092" unicode="&#x44a;" horiz-adv-x="518" 
d="M290 0h-156v410h-114v50h171v-145h99q188 0 188 -155q0 -80 -50 -120t-138 -40zM191 48h113q54 0 85.5 30t31.5 82t-31.5 79.5t-85.5 27.5h-113v-219z" />
    <glyph glyph-name="afii10093" unicode="&#x44b;" horiz-adv-x="636" 
d="M499 0v460h57v-460h-57zM231 0h-151v460h57v-145h94q188 0 188 -155q0 -80 -50 -120t-138 -40zM137 48h108q54 0 85.5 30t31.5 82t-31.5 79.5t-85.5 27.5h-108v-219z" />
    <glyph glyph-name="afii10094" unicode="&#x44c;" horiz-adv-x="464" 
d="M236 0h-156v460h57v-145h99q188 0 188 -155q0 -80 -50 -120t-138 -40zM137 48h113q54 0 85.5 30t31.5 82t-31.5 79.5t-85.5 27.5h-113v-219z" />
    <glyph glyph-name="afii10095" unicode="&#x44d;" horiz-adv-x="508" 
d="M156 215v48h244q-9 71 -52 115.5t-112 44.5q-45 0 -83.5 -18.5t-60.5 -49.5l-37 35q64 85 181 85q100 0 161 -68t61 -177t-61.5 -177t-162.5 -68q-55 0 -104.5 23t-79.5 63l37 34q47 -67 147 -67q74 0 118.5 50t48.5 127h-245z" />
    <glyph glyph-name="afii10096" unicode="&#x44e;" horiz-adv-x="727" 
d="M136 215v-215h-56v460h56v-197h98q10 96 69.5 154t151.5 58q100 0 161 -68t61 -177q0 -110 -60.5 -177.5t-161.5 -67.5q-97 0 -157 63t-65 167h-97zM289 230q0 -83 44 -137.5t122 -54.5t122 54.5t44 137.5q0 84 -44 138.5t-122 54.5t-122 -55t-44 -138z" />
    <glyph glyph-name="afii10097" unicode="&#x44f;" horiz-adv-x="496" 
d="M209 193v4q-60 2 -95.5 35t-35.5 88q0 71 47 105.5t114 34.5h177v-460h-56v179h-54q-48 0 -79 -22.5t-54 -70.5q-16 -34 -31 -55.5t-29 -29.5t-21 -9.5t-19 -1.5q-18 0 -33 5v46q17 -2 28.5 -0.5t23.5 16t30 49.5q24 47 43 64t44 23zM138 319q0 -47 29 -70t73 -23h120
v181h-105q-117 0 -117 -88z" />
    <glyph glyph-name="afii10071" unicode="&#x451;" horiz-adv-x="530" 
d="M50 230q0 108 61.5 176.5t153.5 68.5q106 0 160.5 -66t54.5 -179v-12h-374q3 -80 47 -130.5t125 -50.5q97 0 154 70l37 -33q-67 -89 -194 -89q-107 0 -166 67t-59 178zM265 423q-61 0 -103.5 -43t-52.5 -114h312q-6 74 -45 115.5t-111 41.5zM106 617q0 17 12 29t29 12
t29 -12t12 -29t-12 -29t-29 -12t-29 12t-12 29zM346 617q0 17 12 29t29 12t29 -12t12 -29t-12 -29t-29 -12t-29 12t-12 29z" />
    <glyph glyph-name="afii10099" unicode="&#x452;" horiz-adv-x="612" 
d="M60 570h79v80h56v-80h109v-48h-109v-156q24 57 69 83t95 26q34 0 63 -9t55 -30t40.5 -62t14.5 -99v-325q0 -138 -107 -138q-29 0 -46 13l13 40q18 -7 33 -7q51 0 51 83v319q0 79 -26 121t-98 42q-66 0 -110.5 -51t-46.5 -125v-247h-56v522h-79v48z" />
    <glyph glyph-name="afii10100" unicode="&#x453;" horiz-adv-x="416" 
d="M136 412v-412h-56v460h296v-48h-240zM246 732h59l-75 -189h-48q63 189 64 189z" />
    <glyph glyph-name="afii10101" unicode="&#x454;" horiz-adv-x="508" 
d="M279 423q-70 0 -116 -45t-55 -115h243l1 -48h-246q5 -76 51.5 -126.5t121.5 -50.5q95 0 142 67l37 -34q-64 -86 -179 -86q-101 0 -165 68t-64 177q0 108 64 176.5t165 68.5q110 0 174 -85l-37 -35q-48 68 -137 68z" />
    <glyph glyph-name="afii10102" unicode="&#x455;" horiz-adv-x="468" 
d="M397 417l-31 -42q-65 48 -139 48q-50 0 -79 -20t-29 -55q0 -26 21.5 -43t42 -23t65.5 -14q7 -1 10 -2q34 -7 58.5 -15t50 -23t38.5 -40t13 -59q0 -62 -46.5 -103t-131.5 -41q-59 0 -109 25t-81 69l35 37q64 -78 160 -78q48 0 82 22.5t34 68.5q0 19 -8.5 33t-17.5 22.5
t-31.5 15.5t-33.5 9.5t-40 8.5q-31 6 -49 10.5t-44 15t-40 23t-24.5 33.5t-10.5 48q0 61 49 94t121 33q100 0 165 -58z" />
    <glyph glyph-name="afii10103" unicode="&#x456;" horiz-adv-x="242" 
d="M93 0v460h56v-460h-56zM80 617q0 17 12 29t29 12t29 -12t12 -29t-12 -29t-29 -12t-29 12t-12 29z" />
    <glyph glyph-name="afii10104" unicode="&#x457;" 
d="M80 0v460h56v-460h-56zM2 617q0 17 12 29t29 12t29 -12t12 -29t-12 -29t-29 -12t-29 12t-12 29zM132 617q0 17 12 29t29 12t29 -12t12 -29t-12 -29t-29 -12t-29 12t-12 29z" />
    <glyph glyph-name="afii10105" unicode="&#x458;" horiz-adv-x="229" 
d="M136 460v-510q0 -138 -107 -138q-29 0 -46 13l13 40q17 -7 33 -7q51 0 51 83v519h56zM67 617q0 17 12 29t29 12t29 -12t12 -29t-12 -29t-29 -12t-29 12t-12 29z" />
    <glyph glyph-name="afii10106" unicode="&#x459;" horiz-adv-x="764" 
d="M536 0h-156v412h-196v-58q0 -59 -1.5 -93t-8 -87.5t-17.5 -87.5q-18 -54 -49.5 -79t-87.5 -17v50q44 -5 65 22.5t33 84.5q11 53 14 310v3h305v-145h99q188 0 188 -155q0 -80 -50 -120t-138 -40zM437 48h113q54 0 85.5 30t31.5 82t-31.5 79.5t-85.5 27.5h-113v-219z" />
    <glyph glyph-name="afii10107" unicode="&#x45a;" horiz-adv-x="780" 
d="M552 0h-155v215h-261v-215h-56v460h56v-197h261v197h56v-145h99q188 0 188 -155q0 -80 -50 -120t-138 -40zM453 48h113q54 0 85.5 30t31.5 82t-31.5 79.5t-85.5 27.5h-113v-219z" />
    <glyph glyph-name="afii10108" unicode="&#x45b;" horiz-adv-x="612" 
d="M60 570h79v80h56v-80h109v-48h-109v-156q24 57 69 83t95 26q34 0 63 -9t55 -30t40.5 -62t14.5 -99v-275h-56v260q0 79 -26 121t-98 42q-66 0 -110.5 -51t-46.5 -125v-247h-56v522h-79v48z" />
    <glyph glyph-name="afii10109" unicode="&#x45c;" horiz-adv-x="500" 
d="M136 460v-197h60q16 0 30.5 7t23.5 14.5t20.5 25.5t15.5 26.5t14.5 31.5t12.5 27q20 43 47 63t78 12v-51q-28 2 -45 -6.5t-23.5 -19t-20.5 -41.5q-24 -51 -43.5 -74t-48.5 -33v-6q59 -11 100 -116q20 -51 43.5 -69t59.5 -12v-48l-31 -4q-13 0 -24.5 2.5t-21 8t-17 10.5
t-15 14t-12 15t-10 16t-7.5 14.5t-6 14.5t-5 11q-31 73 -56 96t-64 23h-55v-215h-56v460h56zM266 732h59l-75 -189h-48q63 189 64 189z" />
    <glyph glyph-name="afii10110" unicode="&#x45e;" horiz-adv-x="512" 
d="M462 460l-190 -488q-42 -108 -81.5 -138t-114.5 -18v54q63 -6 90.5 16.5t53.5 94.5l7 19l-197 460h63l164 -386l147 386h58zM347 649h48q0 -73 -36 -105t-89 -32t-89 32t-36 105h50q0 -92 75 -92q77 0 77 92z" />
    <glyph glyph-name="afii10193" unicode="&#x45f;" horiz-adv-x="533" 
d="M397 48v412h56v-460h-160v-136h-53v136h-160v460h56v-412h261z" />
    <glyph glyph-name="afii10050" unicode="&#x490;" horiz-adv-x="519" 
d="M469 650v-50h-333v-600h-56v650h389zM418 806h51v-156h-51v156z" />
    <glyph glyph-name="afii10098" unicode="&#x491;" horiz-adv-x="426" 
d="M338 596h48v-184h-250v-412h-56v460h258v136z" />
    <glyph glyph-name="endash" unicode="&#x2013;" horiz-adv-x="515" 
d="M70 218v53h375v-53h-375z" />
    <glyph glyph-name="emdash" unicode="&#x2014;" horiz-adv-x="795" 
d="M140 218v53h515v-53h-515z" />
    <glyph glyph-name="quoteleft" unicode="&#x2018;" horiz-adv-x="183" 
d="M109 481h-69l65 189h38q-33 -189 -34 -189z" />
    <glyph glyph-name="quoteright" unicode="&#x2019;" horiz-adv-x="183" 
d="M74 650h69l-65 -189h-38q33 189 34 189z" />
    <glyph glyph-name="quotesinglbase" unicode="&#x201a;" horiz-adv-x="203" 
d="M74 69h69l-65 -189h-38q33 189 34 189z" />
    <glyph glyph-name="quotedblleft" unicode="&#x201c;" horiz-adv-x="293" 
d="M219 481h-69l65 189h38q-33 -189 -34 -189zM109 481h-69l65 189h38q-33 -189 -34 -189z" />
    <glyph glyph-name="quotedblright" unicode="&#x201d;" horiz-adv-x="293" 
d="M74 650h69l-65 -189h-38q33 189 34 189zM184 650h69l-65 -189h-38q33 189 34 189z" />
    <glyph glyph-name="quotedblbase" unicode="&#x201e;" horiz-adv-x="293" 
d="M74 69h69l-65 -189h-38q33 189 34 189zM184 69h69l-65 -189h-38q33 189 34 189z" />
    <glyph glyph-name="dagger" unicode="&#x2020;" horiz-adv-x="315" 
d="M20 518v53l116 -7l-7 136h56l-7 -136l117 7v-53l-117 7l7 -309h-56l7 309z" />
    <glyph glyph-name="daggerdbl" unicode="&#x2021;" horiz-adv-x="315" 
d="M20 518v53l116 -7l-7 136h56l-7 -136l117 7v-53l-117 7v-131l117 7v-53l-117 7l7 -139h-56l7 139l-116 -7v53l116 -7v131z" />
    <glyph glyph-name="bullet" unicode="&#x2022;" horiz-adv-x="340" 
d="M80 247q0 36 26 63t64 27q36 0 63 -26.5t27 -63.5q0 -38 -27 -64t-63 -26q-38 0 -64 27t-26 63z" />
    <glyph glyph-name="ellipsis" unicode="&#x2026;" horiz-adv-x="502" 
d="M50 36q0 17 12 29t29 12t29 -12t12 -29t-12 -29t-29 -12t-29 12t-12 29zM370 36q0 17 12 29t29 12t29 -12t12 -29t-12 -29t-29 -12t-29 12t-12 29zM210 36q0 17 12 29t29 12t29 -12t12 -29t-12 -29t-29 -12t-29 12t-12 29z" />
    <glyph glyph-name="perthousand" unicode="&#x2030;" horiz-adv-x="1200" 
d="M40 504q0 72 41.5 116.5t112.5 44.5t112.5 -44.5t41.5 -116.5t-41.5 -116.5t-112.5 -44.5t-112.5 44.5t-41.5 116.5zM96 504q0 -45 26 -75.5t72 -30.5t72 30.5t26 75.5q0 46 -26 76t-72 30t-72 -30t-26 -76zM587 640l-304 -655l-51 24l304 655zM482 146q0 72 41.5 116.5
t112.5 44.5t112.5 -44.5t41.5 -116.5t-41.5 -116.5t-112.5 -44.5t-112.5 44.5t-41.5 116.5zM538 146q0 -45 26 -75.5t72 -30.5t72 30.5t26 75.5q0 46 -26 76t-72 30t-72 -30t-26 -76zM852 146q0 72 41.5 116.5t112.5 44.5t112.5 -44.5t41.5 -116.5t-41.5 -116.5
t-112.5 -44.5t-112.5 44.5t-41.5 116.5zM908 146q0 -45 26 -75.5t72 -30.5t72 30.5t26 75.5q0 46 -26 76t-72 30t-72 -30t-26 -76z" />
    <glyph glyph-name="guilsinglleft" unicode="&#x2039;" horiz-adv-x="326" 
d="M30 245l206 225l40 -33l-178 -192l178 -192l-40 -33z" />
    <glyph glyph-name="guilsinglright" unicode="&#x203a;" horiz-adv-x="326" 
d="M90 470l206 -225l-206 -225l-40 33l178 192l-178 192z" />
    <glyph glyph-name="Euro" unicode="&#x20ac;" horiz-adv-x="548" 
d="M20 239v50h82v72h-82v50h84q8 126 64 190t148 64q131 0 178 -130l-52 -25q-38 102 -126 102q-68 0 -109.5 -49t-44.5 -152h213v-50h-215v-72h215v-50h-213q3 -103 44.5 -152t109.5 -49q88 0 126 102l52 -25q-47 -130 -178 -130q-92 0 -148 64t-64 190h-84z" />
    <glyph glyph-name="afii61352" unicode="&#x2116;" horiz-adv-x="911" 
d="M619 453q0 56 40 96t96 40t96 -40t40 -96t-40 -96t-96 -40t-96 40t-40 96zM663 453q0 -37 27.5 -64.5t64.5 -27.5t64.5 27.5t27.5 64.5t-27.5 64.5t-64.5 27.5t-64.5 -27.5t-27.5 -64.5zM619 230v43h272v-43h-272zM506 0l-370 567v-567h-56v650h63l370 -567v567h56v-650
h-63z" />
    <glyph glyph-name="trademark" unicode="&#x2122;" horiz-adv-x="472" 
d="M331 462l63 188h58v-231h-41v166l-56 -166h-47l-56 166v-166h-42v193h-73v-193h-42v193h-75v38h248z" />
    <glyph glyph-name="CR" horiz-adv-x="220" 
 />
    <glyph glyph-name="percent" horiz-adv-x="830" 
d="M40 504q0 72 41.5 116.5t112.5 44.5t112.5 -44.5t41.5 -116.5t-41.5 -116.5t-112.5 -44.5t-112.5 44.5t-41.5 116.5zM96 504q0 -45 26 -75.5t72 -30.5t72 30.5t26 75.5q0 46 -26 76t-72 30t-72 -30t-26 -76zM587 640l-304 -655l-51 24l304 655zM482 146q0 72 41.5 116.5
t112.5 44.5t112.5 -44.5t41.5 -116.5t-41.5 -116.5t-112.5 -44.5t-112.5 44.5t-41.5 116.5zM538 146q0 -45 26 -75.5t72 -30.5t72 30.5t26 75.5q0 46 -26 76t-72 30t-72 -30t-26 -76z" />
    <glyph glyph-name="hyphen.2" horiz-adv-x="435" 
d="M50 218v53h335v-53h-335z" />
    <glyph glyph-name="asciitilde.2" horiz-adv-x="572" 
d="M225 296l146 -51q103 -36 100 65l51 -13q-10 -155 -175 -98l-146 51q-50 17 -75.5 -0.5t-24.5 -69.5l-51 13q5 78 47.5 102t127.5 1z" />
    <glyph glyph-name="endash.2" horiz-adv-x="515" 
d="M70 218v53h375v-53h-375z" />
    <glyph glyph-name="emdash.2" horiz-adv-x="795" 
d="M140 218v53h515v-53h-515z" />
    <glyph glyph-name="uni00AD.2" horiz-adv-x="435" 
d="M50 218v53h335v-53h-335z" />
    <glyph glyph-name="plus.2" horiz-adv-x="515" 
d="M70 218v53h161v171h53v-171h161v-53h-161v-171h-53v171h-161z" />
    <glyph glyph-name="colon.2" horiz-adv-x="222" 
d="M70 96q0 17 12 29t29 12t29 -12t12 -29t-12 -29t-29 -12t-29 12t-12 29zM70 364q0 17 12 29t29 12t29 -12t12 -29t-12 -29t-29 -12t-29 12t-12 29z" />
    <glyph glyph-name="periodcentered.2" horiz-adv-x="242" 
d="M80 246q0 17 12 29t29 12t29 -12t12 -29t-12 -29t-29 -12t-29 12t-12 29z" />
    <glyph glyph-name="bullet.2" horiz-adv-x="340" 
d="M80 247q0 36 26 63t64 27q36 0 63 -26.5t27 -63.5q0 -38 -27 -64t-63 -26q-38 0 -64 27t-26 63z" />
    <glyph glyph-name="plusminus.2" horiz-adv-x="515" 
d="M70 328v53h161v151h53v-151h161v-53h-161v-151h-53v151h-161zM70 88v53h375v-53h-375z" />
    <glyph glyph-name="equal.2" horiz-adv-x="515" 
d="M70 158v53h375v-53h-375zM70 288v53h375v-53h-375z" />
    </font>
</defs>
</svg>
