<?xml version="1.0" standalone="no"?>
<!DOCTYPE svg PUBLIC "-//W3C//DTD SVG 1.1//EN" "http://www.w3.org/Graphics/SVG/1.1/DTD/svg11.dtd" >
<svg>
<metadata>
Created by FontForge 20120731 at Sat Sep 10 02:18:42 2016
 By ,,,
Copyright 2011 Adobe Systems Incorporated. All rights reserved.
</metadata>
<defs>
<font id="LitteraTextBold" horiz-adv-x="246" >
  <font-face 
    font-family="Littera Text Bold"
    font-weight="700"
    font-stretch="normal"
    units-per-em="1000"
    panose-1="2 0 5 6 4 0 0 2 0 4"
    ascent="800"
    descent="-200"
    x-height="460"
    cap-height="650"
    bbox="-53 -221 1170 939"
    underline-thickness="50"
    underline-position="-50"
    unicode-range="U+0020-2122"
  />
<missing-glyph horiz-adv-x="0" 
 />
    <glyph glyph-name=".notdef" horiz-adv-x="0" 
 />
    <glyph glyph-name=".null" horiz-adv-x="0" 
 />
    <glyph glyph-name="nonmarkingreturn" horiz-adv-x="333" 
 />
    <glyph glyph-name="space" unicode=" " horiz-adv-x="250" 
 />
    <glyph glyph-name="exclam" unicode="!" horiz-adv-x="252" 
d="M194 650l-13 -440h-110l-13 440h136zM50 70q0 32 22 54.5t54 22.5t54 -22.5t22 -54.5t-22 -53.5t-54 -21.5t-54 21.5t-22 53.5z" />
    <glyph glyph-name="quotedbl" unicode="&#x22;" horiz-adv-x="350" 
d="M40 479l-10 230h125l-10 -230h-105zM205 479l-10 230h125l-10 -230h-105z" />
    <glyph glyph-name="numbersign" unicode="#" horiz-adv-x="715" 
d="M80 377v113h170l61 160h118l-61 -160h112l61 160h118l-61 -160h117v-113h-161l-44 -116h125v-113h-169l-56 -148h-117l56 148h-113l-56 -148h-117l56 148h-119v113h162l45 116h-127zM324 377l-44 -116h112l45 116h-113z" />
    <glyph glyph-name="dollar" unicode="$" horiz-adv-x="541" 
d="M501 185q0 -78 -44.5 -128.5t-124.5 -65.5v-135h-121v133q-117 17 -171 111l76 77q22 -35 63.5 -57.5t88.5 -22.5q107 0 107 88q0 71 -112 101q-103 27 -154.5 70t-51.5 130q0 66 38 113.5t116 60.5v136h121v-136q86 -13 143 -80l-72 -91q-42 35 -69 49.5t-64 14.5
q-93 0 -93 -69q0 -30 23 -47t87 -38q52 -17 85.5 -32.5t65.5 -40t47.5 -59.5t15.5 -82z" />
    <glyph glyph-name="ampersand" unicode="&#x26;" horiz-adv-x="602" 
d="M510 -15l-75 72q-74 -72 -176 -72q-60 0 -109.5 16.5t-84.5 57.5t-35 103q0 64 29 102.5t87 72.5q-41 45 -56 79t-15 79q0 74 53.5 122t136.5 48q84 0 137 -40.5t53 -109.5q0 -60 -28.5 -105t-105.5 -95l86 -82q13 36 13 76h118q0 -80 -40 -163q14 -14 42 -40.5t42 -39.5
zM349 138l-125 121q-36 -21 -52.5 -39t-16.5 -43q0 -40 28.5 -59.5t73.5 -19.5q50 0 92 40zM330 485q0 67 -65 67q-30 0 -47.5 -18t-17.5 -49q0 -25 8.5 -44t35.5 -49q46 27 66 47.5t20 45.5z" />
    <glyph glyph-name="quotesingle" unicode="'" horiz-adv-x="185" 
d="M40 479l-10 230h125l-10 -230h-105z" />
    <glyph glyph-name="parenleft" unicode="(" horiz-adv-x="299" 
d="M60 276q0 239 123 444q18 -9 53.5 -25t52.5 -25q-103 -185 -103 -394q0 -211 103 -394q-18 -8 -53.5 -25t-53.5 -25q-122 206 -122 444z" />
    <glyph glyph-name="parenright" unicode=")" horiz-adv-x="299" 
d="M239 276q0 -238 -122 -444q-18 8 -53.5 25t-53.5 25q103 183 103 394q0 209 -103 394q17 9 52.5 25t53.5 25q123 -205 123 -444z" />
    <glyph glyph-name="asterisk" unicode="*" horiz-adv-x="390" 
d="M243 699l89 -51l-71 -96l119 13v-103l-118 13l70 -96l-89 -51l-48 109l-48 -109l-89 51l70 96l-118 -13v103l118 -13l-70 96l89 51l48 -109z" />
    <glyph glyph-name="plus" unicode="+" horiz-adv-x="505" 
d="M50 188v103h141v141h123v-141h141v-103h-141v-141h-123v141h-141z" />
    <glyph glyph-name="comma" unicode="," horiz-adv-x="221" 
d="M62 119h129l-75 -219h-86q31 219 32 219z" />
    <glyph glyph-name="hyphen" unicode="-" horiz-adv-x="435" 
d="M50 188v103h335v-103h-335z" />
    <glyph glyph-name="period" unicode="." horiz-adv-x="212" 
d="M30 70q0 32 22 54.5t54 22.5t54 -22.5t22 -54.5t-22 -53.5t-54 -21.5t-54 21.5t-22 53.5z" />
    <glyph glyph-name="slash" unicode="/" horiz-adv-x="476" 
d="M476 645l-373 -767l-103 51l373 767z" />
    <glyph glyph-name="zero" unicode="0" horiz-adv-x="542" 
d="M40 325q0 340 231 340t231 -340t-231 -340t-231 340zM168 325q0 -123 24.5 -175t78.5 -52q55 0 79 51.5t24 175.5t-24 175.5t-79 51.5q-54 0 -78.5 -52t-24.5 -175z" />
    <glyph glyph-name="one" unicode="1" horiz-adv-x="322" 
d="M20 411v113q48 0 82 37t34 89h126v-650h-126v461q-26 -50 -116 -50z" />
    <glyph glyph-name="two" unicode="2" horiz-adv-x="496" 
d="M456 113v-113h-416v113q8 7 38 33.5t42.5 38t41 37.5t42.5 41.5t36.5 39.5t34.5 42t25 39t18.5 40t5.5 36q0 49 -21.5 70.5t-55.5 21.5q-66 0 -85 -79l-113 36q18 84 73 120t128 36q87 0 146.5 -47t59.5 -150q0 -58 -41.5 -128t-93.5 -123.5t-114 -103.5h249z" />
    <glyph glyph-name="three" unicode="3" horiz-adv-x="506" 
d="M38 140l114 44q19 -85 97 -85q35 0 58.5 25.5t23.5 73.5q0 44 -23.5 67t-57.5 23h-48v114h43q77 0 77 80q0 36 -21 53.5t-54 17.5q-69 0 -85 -80l-113 36q10 45 32 77.5t51.5 48.5t58.5 23t59 7q92 0 148.5 -43.5t56.5 -125.5q0 -62 -28.5 -101.5t-77.5 -47.5v-6
q56 -10 86.5 -51t30.5 -101q0 -89 -53.5 -146.5t-161.5 -57.5q-174 0 -213 155z" />
    <glyph glyph-name="four" unicode="4" horiz-adv-x="509" 
d="M20 241l244 409h159v-409h66v-103h-66v-138h-126v138h-277v103zM150 241h147v253z" />
    <glyph glyph-name="five" unicode="5" horiz-adv-x="509" 
d="M434 650v-113h-246l-14 -122q31 43 100 43q102 0 148.5 -67t46.5 -172q0 -100 -53.5 -167t-168.5 -67q-87 0 -136.5 37.5t-73.5 117.5l114 44q9 -42 36 -63.5t60 -21.5q34 0 60.5 28t26.5 91q0 66 -21.5 95t-68.5 29q-51 0 -75 -55h-119l39 363h345z" />
    <glyph glyph-name="six" unicode="6" horiz-adv-x="514" 
d="M473 212q-1 -117 -60.5 -172t-144.5 -55q-120 0 -175 72.5t-55 229.5q0 89 13.5 157t35 109t52 67t61 35.5t65.5 9.5q89 0 138 -43.5t62 -103.5l-114 -44q-21 77 -88 77q-97 0 -105 -198q35 61 124 61q81 0 136.5 -53t54.5 -149zM257 98q41 0 67 24.5t26 76.5
q0 51 -26 76.5t-67 25.5q-37 0 -63.5 -26t-26.5 -76q0 -52 26 -76.5t64 -24.5z" />
    <glyph glyph-name="seven" unicode="7" horiz-adv-x="444" 
d="M20 537v113h404v-113q-89 -89 -146 -243q-28 -76 -39.5 -159.5t-11.5 -134.5h-130q0 51 11.5 134.5t39.5 159.5q57 154 146 243h-274z" />
    <glyph glyph-name="eight" unicode="8" horiz-adv-x="517" 
d="M457 493q0 -56 -29.5 -95.5t-77.5 -50.5v-4q51 -8 89 -51t38 -112q0 -102 -62.5 -148.5t-155.5 -46.5t-156 46.5t-63 147.5q0 69 38.5 112t87.5 52v4q-48 11 -77 50.5t-29 94.5q0 83 56 128t143 45q86 0 142 -45t56 -127zM259 78q37 0 63 24t26 83q0 48 -26.5 75
t-62.5 27q-37 0 -63.5 -27t-26.5 -76q0 -59 27 -82.5t63 -23.5zM259 400q37 0 54 26.5t17 64.5q0 36 -18 58.5t-53 22.5t-53.5 -22.5t-18.5 -58.5q0 -38 17 -64.5t55 -26.5z" />
    <glyph glyph-name="nine" unicode="9" horiz-adv-x="514" 
d="M41 438q1 118 61 172.5t148 54.5q111 0 167.5 -72t56.5 -230q0 -111 -18 -188t-50.5 -117t-70.5 -56.5t-86 -16.5q-90 0 -141.5 47t-66.5 116l113 31q19 -80 96 -80q96 0 104 198q-35 -61 -124 -61q-79 0 -134.5 55.5t-54.5 146.5zM255 552q-40 0 -65.5 -26t-25.5 -75
q0 -48 26 -75t65 -27q37 0 63.5 25.5t26.5 76.5q0 48 -26.5 74.5t-63.5 26.5z" />
    <glyph glyph-name="colon" unicode=":" horiz-adv-x="232" 
d="M40 105q0 32 22 54.5t54 22.5t54 -22.5t22 -54.5t-22 -53.5t-54 -21.5t-54 21.5t-22 53.5zM40 350q0 32 22 54.5t54 22.5t54 -22.5t22 -54.5t-22 -53.5t-54 -21.5t-54 21.5t-22 53.5z" />
    <glyph glyph-name="semicolon" unicode=";" horiz-adv-x="227" 
d="M45 350q0 32 22 54.5t54 22.5t54 -22.5t22 -54.5t-22 -53.5t-54 -21.5t-54 21.5t-22 53.5zM62 119h129l-75 -219h-86q31 219 32 219z" />
    <glyph glyph-name="less" unicode="&#x3c;" horiz-adv-x="407" 
d="M308 -15l-288 257l287 257l70 -79l-208 -178l208 -177z" />
    <glyph glyph-name="equal" unicode="=" horiz-adv-x="475" 
d="M50 108v103h375v-103h-375zM50 268v103h375v-103h-375z" />
    <glyph glyph-name="greater" unicode="&#x3e;" horiz-adv-x="407" 
d="M387 242l-288 -257l-69 80l208 177l-208 178l70 79z" />
    <glyph glyph-name="question" unicode="?" horiz-adv-x="447" 
d="M280 210h-126v73q0 74 76 119q42 25 51 37q13 17 13 43q0 36 -19.5 53.5t-52.5 17.5q-76 0 -76 -93h-126q0 58 18 99.5t48.5 63.5t64 32t71.5 10q91 0 148 -44.5t57 -124.5q0 -87 -77 -140q-43 -30 -56.5 -47.5t-13.5 -51.5v-47zM145 70q0 32 22 54.5t54 22.5t54 -22.5
t22 -54.5t-22 -53.5t-54 -21.5t-54 21.5t-22 53.5z" />
    <glyph glyph-name="at" unicode="@" horiz-adv-x="862" 
d="M154 216q0 -159 69.5 -232.5t207.5 -73.5q91 0 154 37l61 -88q-92 -56 -215 -56q-188 0 -289.5 108.5t-101.5 299.5q0 189 106 303t287 114q183 0 286 -111t103 -301q0 -99 -44.5 -160t-122.5 -61q-91 0 -124 55q-65 -55 -158 -55q-68 0 -105 37.5t-37 94.5q0 33 11 58
t32 41t45.5 26.5t58 15t61.5 6.5t64 2q0 31 -21.5 48t-59.5 17q-65 0 -106 -41l-62 77q67 68 173 68q202 0 202 -188v-100q0 -53 32 -53q47 0 47 112q0 153 -80 229t-197 76q-55 0 -103 -17.5t-87.5 -52.5t-63 -95.5t-23.5 -139.5zM503 136v52q-86 0 -116.5 -14.5
t-30.5 -44.5q0 -35 47 -35q58 0 100 42z" />
    <glyph glyph-name="A" unicode="A" horiz-adv-x="681" 
d="M524 0l-49 138h-269l-49 -138h-137l247 650h147l247 -650h-137zM340 530l-97 -287h195z" />
    <glyph glyph-name="B" unicode="B" horiz-adv-x="633" 
d="M60 0v650h256q123 0 184.5 -42.5t61.5 -114.5q0 -125 -116 -149v-5q75 -9 111 -54t36 -105q0 -78 -61 -129t-185 -51h-287zM196 276v-171h119q73 0 105 20t32 67q0 46 -37.5 65t-119.5 19h-99zM196 386h79q80 0 113.5 17t33.5 65q0 43 -33.5 60t-104.5 17h-88v-159z" />
    <glyph glyph-name="C" unicode="C" horiz-adv-x="682" 
d="M178 325q0 -116 56.5 -169.5t140.5 -53.5q110 0 171 89l96 -71q-86 -135 -269 -135q-150 0 -241.5 89.5t-91.5 245.5q0 157 91 251t240 94q173 0 260 -126l-94 -77q-35 49 -71.5 67.5t-94.5 18.5q-82 0 -137.5 -56t-55.5 -167z" />
    <glyph glyph-name="D" unicode="D" horiz-adv-x="666" 
d="M626 322q0 -157 -85 -239.5t-237 -82.5h-244v650h240q151 0 238.5 -85.5t87.5 -242.5zM196 120h78q111 0 164 47.5t53 157.5q0 108 -55.5 156.5t-161.5 48.5h-78v-410z" />
    <glyph glyph-name="E" unicode="E" horiz-adv-x="564" 
d="M60 0v650h454v-115h-318v-150h263v-110h-263v-160h328v-115h-464z" />
    <glyph glyph-name="F" unicode="F" horiz-adv-x="534" 
d="M60 0v650h444v-115h-308v-155h223v-110h-223v-270h-136z" />
    <glyph glyph-name="G" unicode="G" horiz-adv-x="709" 
d="M534 259h-188v105h323v-60q0 -147 -77 -233t-221 -86q-150 0 -240.5 89.5t-90.5 245.5q0 157 91 251t240 94q181 0 267 -120l-100 -84q-58 87 -167 87q-82 0 -137.5 -56t-55.5 -167q0 -117 54.5 -170t138.5 -53q80 0 121.5 41t41.5 116z" />
    <glyph glyph-name="H" unicode="H" horiz-adv-x="684" 
d="M196 275v-275h-136v650h136v-265h293v265h135v-650h-135v275h-293z" />
    <glyph glyph-name="I" unicode="I" horiz-adv-x="256" 
d="M196 650v-650h-136v650h136z" />
    <glyph glyph-name="J" unicode="J" horiz-adv-x="406" 
d="M346 650v-448q0 -107 -54 -162t-140 -55q-72 0 -132 38l40 113q45 -27 75 -27q40 0 57.5 31t17.5 96v414h136z" />
    <glyph glyph-name="K" unicode="K" horiz-adv-x="649" 
d="M593 650l-237 -289l273 -361h-170l-192 269l-71 -88v-181h-136v650h136v-301l239 301h158z" />
    <glyph glyph-name="L" unicode="L" horiz-adv-x="539" 
d="M509 0h-449v650h136v-527h313v-123z" />
    <glyph glyph-name="M" unicode="M" horiz-adv-x="811" 
d="M347 120l-151 300v-420h-136v650h146l200 -392l200 392h145v-650h-135v420l-158 -300h-111z" />
    <glyph glyph-name="N" unicode="N" horiz-adv-x="689" 
d="M486 0l-290 433v-433h-136v650h143l290 -433v433h136v-650h-143z" />
    <glyph glyph-name="O" unicode="O" horiz-adv-x="742" 
d="M40 325q0 153 89 246.5t242 93.5t242 -93.5t89 -246.5t-89 -246.5t-242 -93.5t-242 93.5t-89 246.5zM178 325q0 -103 51.5 -163t141.5 -60q91 0 142 60t51 163q0 104 -51 163.5t-142 59.5q-90 0 -141.5 -59.5t-51.5 -163.5z" />
    <glyph glyph-name="P" unicode="P" horiz-adv-x="586" 
d="M196 231v-231h-136v650h236q116 0 183 -49.5t67 -156.5q0 -108 -67.5 -160.5t-182.5 -52.5h-100zM196 343h65q81 0 115 21.5t34 79.5q0 56 -35 74.5t-114 18.5h-65v-194z" />
    <glyph glyph-name="Q" unicode="Q" horiz-adv-x="742" 
d="M40 325q0 153 89 246.5t242 93.5t242 -93.5t89 -246.5q0 -135 -71 -225.5t-195 -109.5q-1 -54 23 -74.5t53 -20.5q19 0 37 7v-115q-16 -8 -47 -8q-49 0 -85.5 16t-56.5 38.5t-33 54.5t-16.5 54.5t-5.5 47.5q-124 19 -194.5 109.5t-70.5 225.5zM178 325q0 -103 51.5 -163
t141.5 -60q91 0 142 60t51 163q0 104 -51 163.5t-142 59.5q-90 0 -141.5 -59.5t-51.5 -163.5z" />
    <glyph glyph-name="R" unicode="R" horiz-adv-x="616" 
d="M196 221v-221h-136v650h236q116 0 188 -52t72 -159q0 -67 -32.5 -116t-85.5 -75l158 -248h-165l-125 221h-10h-100zM196 333h65q82 0 120.5 24t38.5 82q0 56 -40 77t-119 21h-65v-204z" />
    <glyph glyph-name="S" unicode="S" horiz-adv-x="601" 
d="M561 185q0 -96 -77 -148t-186 -52q-75 0 -149.5 25.5t-112.5 86.5l85 92q23 -34 76 -58t101 -24q59 0 88 22.5t29 55.5q0 29 -23 48t-84 35q-133 34 -192 79t-59 133q0 86 65 135.5t175 49.5q170 0 235 -77l-77 -96q-70 58 -158 58q-43 0 -68.5 -16.5t-25.5 -50.5
q0 -29 19.5 -45.5t84.5 -35.5q112 -33 144 -48q101 -48 109 -149q1 -9 1 -20z" />
    <glyph glyph-name="T" unicode="T" horiz-adv-x="602" 
d="M572 650v-115h-203v-535h-136v535h-203v115h542z" />
    <glyph glyph-name="U" unicode="U" horiz-adv-x="675" 
d="M50 269v381h136v-336q0 -105 32 -155.5t119 -50.5q89 0 120.5 50t31.5 156v336h136v-381q0 -142 -79 -213t-207 -71q-127 0 -208 71.5t-81 212.5z" />
    <glyph glyph-name="V" unicode="V" horiz-adv-x="697" 
d="M351 140l184 510h142l-245 -650h-167l-245 650h142z" />
    <glyph glyph-name="W" unicode="W" horiz-adv-x="924" 
d="M664 130l100 520h140l-144 -650h-184l-114 508l-114 -508h-185l-143 650h140l99 -520l113 520h180z" />
    <glyph glyph-name="X" unicode="X" horiz-adv-x="688" 
d="M20 0l244 337l-224 313h167l137 -218l142 218h162l-225 -313l245 -337h-167l-158 237l-161 -237h-162z" />
    <glyph glyph-name="Y" unicode="Y" horiz-adv-x="642" 
d="M632 650l-243 -433v-217h-136v217l-243 433h144l168 -315l166 315h144z" />
    <glyph glyph-name="Z" unicode="Z" horiz-adv-x="589" 
d="M548 529l-354 -408h355v-121h-509v121l355 409h-335v120h488v-121z" />
    <glyph glyph-name="bracketleft" unicode="[" horiz-adv-x="315" 
d="M315 703v-108h-124v-637h124v-108h-245v853h245z" />
    <glyph glyph-name="backslash" unicode="\" horiz-adv-x="476" 
d="M373 -122l-373 767l103 51l373 -767z" />
    <glyph glyph-name="bracketright" unicode="]" horiz-adv-x="315" 
d="M0 595v108h245v-853h-245v108h124v637h-124z" />
    <glyph glyph-name="asciicircum" unicode="^" horiz-adv-x="514" 
d="M30 422l227 248l227 -247l-79 -70l-148 168l-147 -168z" />
    <glyph glyph-name="underscore" unicode="_" horiz-adv-x="555" 
d="M60 0v108h435v-108h-435z" />
    <glyph glyph-name="grave" unicode="`" horiz-adv-x="221" 
d="M10 650h139l72 -219h-96z" />
    <glyph glyph-name="a" unicode="a" horiz-adv-x="534" 
d="M125 330l-56 75q84 70 178 70q211 0 211 -188v-148q0 -21 2 -31t12.5 -16.5t31.5 -5.5v-96q-21 -2 -62 -2q-74 0 -94 52q-65 -55 -168 -55q-70 0 -110 38t-40 100q0 46 20 79t49 50.5t73.5 28t79.5 13t80 2.5q0 42 -27.5 60.5t-66.5 18.5q-68 0 -113 -45zM332 126v82
q-175 0 -175 -73q0 -53 65 -53q66 0 110 44z" />
    <glyph glyph-name="b" unicode="b" horiz-adv-x="578" 
d="M176 74v-74h-116v650h126v-256q43 79 144 79q94 0 151 -64.5t57 -179.5t-56 -179.5t-152 -64.5q-100 0 -154 89zM182 229q0 -67 30.5 -104.5t83.5 -37.5q57 0 84.5 40t27.5 102t-27.5 102t-84.5 40q-53 0 -83.5 -37.5t-30.5 -104.5z" />
    <glyph glyph-name="c" unicode="c" horiz-adv-x="528" 
d="M166 230q0 -60 32.5 -101t88.5 -41q81 0 117 56l84 -68q-65 -91 -201 -91q-115 0 -181 65t-66 175q0 111 66.5 180.5t180.5 69.5q134 0 201 -91l-83 -67q-36 56 -118 56q-56 0 -88.5 -41.5t-32.5 -101.5z" />
    <glyph glyph-name="d" unicode="d" horiz-adv-x="578" 
d="M402 0v74q-54 -89 -154 -89q-96 0 -152 64.5t-56 179.5t57 179.5t151 64.5q101 0 144 -79v256h126v-650h-116zM396 229q0 67 -30.5 104.5t-83.5 37.5q-57 0 -84.5 -40t-27.5 -102t27.5 -102t84.5 -40q53 0 83.5 37.5t30.5 104.5z" />
    <glyph glyph-name="e" unicode="e" horiz-adv-x="537" 
d="M40 228q0 112 67.5 179.5t162.5 67.5q109 0 168 -61.5t59 -177.5v-48h-331q2 -48 39.5 -74t81.5 -26q82 0 131 57l72 -71q-67 -89 -203 -89q-121 0 -184 65.5t-63 177.5zM275 373q-41 0 -70 -25t-35 -72h205q-9 97 -100 97z" />
    <glyph glyph-name="f" unicode="f" horiz-adv-x="390" 
d="M107 367h-77v93h77v40q0 71 40.5 109.5t106.5 38.5q55 0 106 -18l-16 -96q-18 7 -61 7q-32 0 -41 -15t-9 -52v-14h101v-93h-101v-367h-126v367z" />
    <glyph glyph-name="g" unicode="g" horiz-adv-x="578" 
d="M402 386v74h116v-424q0 -118 -69 -176.5t-184 -58.5q-133 0 -197 87l69 75q49 -54 128 -54q62 0 94.5 29t32.5 98v30q-43 -79 -144 -79q-94 0 -151 64.5t-57 179.5t56 179.5t152 64.5q100 0 154 -89zM396 231q0 67 -30.5 104.5t-83.5 37.5q-57 0 -84.5 -40t-27.5 -102
t27.5 -102t84.5 -40q53 0 83.5 37.5t30.5 104.5z" />
    <glyph glyph-name="h" unicode="h" horiz-adv-x="553" 
d="M186 230v-230h-126v650h126v-274q21 50 59.5 74.5t84.5 24.5q163 0 163 -200v-275h-126v260q0 66 -16.5 89.5t-54.5 23.5q-51 0 -80.5 -43t-29.5 -100z" />
    <glyph glyph-name="i" unicode="i" 
d="M60 0v460h126v-460h-126zM47 621q0 32 22 54.5t54 22.5t54 -22.5t22 -54.5t-22 -53.5t-54 -21.5t-54 21.5t-22 53.5z" />
    <glyph glyph-name="j" unicode="j" 
d="M186 460v-470q0 -178 -147 -178q-15 0 -41.5 4t-34.5 9l13 96q10 -4 33 -4q51 0 51 83v460h126zM47 621q0 32 22 54.5t54 22.5t54 -22.5t22 -54.5t-22 -53.5t-54 -21.5t-54 21.5t-22 53.5z" />
    <glyph glyph-name="k" unicode="k" horiz-adv-x="541" 
d="M186 256l172 204h145l-188 -205l206 -255h-152l-127 178l-56 -60v-118h-126v650h126v-394z" />
    <glyph glyph-name="l" unicode="l" 
d="M186 650v-650h-126v650h126z" />
    <glyph glyph-name="m" unicode="m" horiz-adv-x="800" 
d="M463 250v-250h-126v260q0 59 -17 83.5t-52 24.5q-34 0 -58 -30.5t-24 -87.5v-250h-126v460h121v-77q24 45 60 68.5t74 23.5q51 0 83 -18t50 -76h5q21 45 58 69.5t81 24.5q69 0 108.5 -44t39.5 -156v-275h-126v260q0 59 -17 83.5t-52 24.5q-34 0 -58 -30.5t-24 -87.5z" />
    <glyph glyph-name="n" unicode="n" horiz-adv-x="553" 
d="M186 230v-230h-126v460h116v-94q49 109 154 109q163 0 163 -200v-275h-126v260q0 66 -16.5 89.5t-54.5 23.5q-51 0 -80.5 -43t-29.5 -100z" />
    <glyph glyph-name="o" unicode="o" horiz-adv-x="574" 
d="M40 230q0 110 66.5 177.5t180.5 67.5t180.5 -67.5t66.5 -177.5q0 -111 -66 -178t-181 -67t-181 67.5t-66 177.5zM166 230q0 -60 32.5 -101t88.5 -41t88.5 41t32.5 101q0 61 -32.5 102t-88.5 41t-88.5 -41.5t-32.5 -101.5z" />
    <glyph glyph-name="p" unicode="p" horiz-adv-x="578" 
d="M176 460v-74q54 89 154 89q96 0 152 -64.5t56 -179.5t-57 -179.5t-151 -64.5q-101 0 -144 79v-250h-126v644h116zM182 231q0 -67 30.5 -104.5t83.5 -37.5q57 0 84.5 40t27.5 102t-27.5 102t-84.5 40q-53 0 -83.5 -37.5t-30.5 -104.5z" />
    <glyph glyph-name="q" unicode="q" horiz-adv-x="578" 
d="M402 386v74h116v-644h-126v250q-43 -79 -144 -79q-94 0 -151 64.5t-57 179.5t56 179.5t152 64.5q100 0 154 -89zM396 231q0 67 -30.5 104.5t-83.5 37.5q-57 0 -84.5 -40t-27.5 -102t27.5 -102t84.5 -40q53 0 83.5 37.5t30.5 104.5z" />
    <glyph glyph-name="r" unicode="r" horiz-adv-x="427" 
d="M186 190v-190h-126v460h121v-117q45 128 159 128q35 0 57 -11l-13 -116q-17 6 -44 6q-68 0 -111 -45.5t-43 -114.5z" />
    <glyph glyph-name="s" unicode="s" horiz-adv-x="478" 
d="M425 420l-51 -81q-69 44 -127 44q-73 0 -73 -45q0 -6 1.5 -11t6.5 -8.5t9.5 -6.5t14 -6t17.5 -5.5t23 -6.5t27 -8q39 -12 56.5 -18.5t43.5 -19.5t36.5 -27t19.5 -37.5t9 -54.5q0 -62 -53 -103t-140 -41q-64 0 -119.5 23t-85.5 65l58 70q68 -65 142 -65q33 0 57 12t24 39
q0 21 -18 32.5t-68 26.5q-54 16 -80 26t-52.5 27t-36 39.5t-9.5 57.5q0 73 53.5 105t131.5 32q55 0 105.5 -15.5t77.5 -39.5z" />
    <glyph glyph-name="t" unicode="t" horiz-adv-x="390" 
d="M40 460h67v120h126v-120h91v-93h-91v-208v-14v-12.5t0.5 -10t1.5 -9.5l2.5 -7.5t4.5 -6t7.5 -4t10 -3t13.5 -0.5q33 0 51 7l16 -96q-51 -18 -96 -18q-76 0 -106.5 36t-30.5 112v234h-67v93z" />
    <glyph glyph-name="u" unicode="u" horiz-adv-x="553" 
d="M367 230v230h126v-460h-116v94q-49 -109 -148 -109q-169 0 -169 200v275h126v-260q0 -65 19 -89t58 -24q50 0 77 42.5t27 100.5z" />
    <glyph glyph-name="v" unicode="v" horiz-adv-x="574" 
d="M287 125l126 335h131l-190 -460h-134l-190 460h131z" />
    <glyph glyph-name="w" unicode="w" horiz-adv-x="808" 
d="M575 125l73 335h130l-137 -460h-130l-107 340l-107 -340h-130l-137 460h130l73 -335l102 335h136z" />
    <glyph glyph-name="x" unicode="x" horiz-adv-x="531" 
d="M20 0l173 240l-158 220h145l85 -140l86 140h145l-159 -220l174 -240h-145l-101 159l-100 -159h-145z" />
    <glyph glyph-name="y" unicode="y" horiz-adv-x="539" 
d="M519 460l-183 -479q-42 -109 -96 -143t-164 -22v109q64 -6 92.5 7t41.5 49l7 19l-187 460h133l119 -324l107 324h130z" />
    <glyph glyph-name="z" unicode="z" horiz-adv-x="510" 
d="M307 352h-247v108h390v-108l-255 -244h265v-108h-410v108z" />
    <glyph glyph-name="braceleft" unicode="{" horiz-adv-x="328" 
d="M30 237v76q21 0 42 23t21 53v171q0 93 59 126t146 16v-113q-49 14 -69 -5.5t-20 -74.5v-136q0 -61 -60 -98q60 -37 60 -98v-133q0 -55 20 -74.5t69 -5.5v-113q-87 -17 -146 16t-59 126v168q0 30 -21 53t-42 23z" />
    <glyph glyph-name="bar" unicode="|" horiz-adv-x="241" 
d="M181 703v-853h-121v853h121z" />
    <glyph glyph-name="braceright" unicode="}" horiz-adv-x="328" 
d="M298 313v-76q-21 0 -42 -23t-21 -53v-168q0 -93 -59 -126t-146 -16v113q49 -14 69 5.5t20 74.5v133q0 61 60 98q-60 37 -60 98v136q0 55 -20 74.5t-69 5.5v113q87 17 146 -16t59 -126v-171q0 -30 21 -53t42 -23z" />
    <glyph glyph-name="asciitilde" unicode="~" horiz-adv-x="653" 
d="M229 330l175 -55q50 -17 75.5 -2t24.5 67l109 -29q-6 -88 -53 -136t-136 -20l-175 55q-103 32 -100 -70l-109 29q6 88 52.5 136.5t136.5 24.5z" />
    <glyph glyph-name="sterling" unicode="&#xa3;" horiz-adv-x="673" 
d="M50 353v93h87q1 104 66 162.5t174 58.5q62 0 108 -17.5t92 -63.5l-82 -94q-25 34 -51 47t-67 13q-44 0 -73.5 -27t-30.5 -79h152v-93h-141q3 -13 7 -37h134v-103h-133q-5 -27 -7 -36q16 -4 24 -7l105 -40q49 -21 75 -11t25 61l109 -29q-6 -89 -54 -139t-135 -17l-105 40
q-49 21 -75 8.5t-25 -63.5l-109 29q3 50 24 99q25 62 33 105h-127v103h114q-4 8 -14 37h-100z" />
    <glyph glyph-name="currency" unicode="&#xa4;" horiz-adv-x="520" 
d="M40 93l55 109q-39 55 -39 128t39 128l-55 109l115 53l46 -101q32 6 59 6q28 0 58 -6l47 101l115 -53l-56 -109q41 -55 41 -128q0 -74 -41 -129l56 -108l-115 -53l-47 101q-22 -6 -58 -6q-35 0 -59 6l-46 -101zM173 330q0 -48 22.5 -75.5t64.5 -27.5t65 28t23 75t-23 75
t-65 28t-64.5 -27.5t-22.5 -75.5z" />
    <glyph glyph-name="brokenbar" unicode="&#xa6;" horiz-adv-x="241" 
d="M181 -150h-121v386h121v-386zM181 703v-387h-121v387h121z" />
    <glyph glyph-name="section" unicode="&#xa7;" horiz-adv-x="477" 
d="M50 67l66 66q15 -20 46.5 -32.5t64.5 -12.5q85 0 85 37q0 19 -26.5 33.5t-64.5 26.5t-76 28t-64.5 46.5t-26.5 74.5q0 53 43 98q-47 34 -47 85q0 74 60.5 111t129.5 37q61 0 113.5 -24.5t73.5 -57.5l-66 -66q-15 20 -46.5 32.5t-64.5 12.5q-85 0 -85 -37
q0 -19 26.5 -33.5t64.5 -26.5t76 -28t64.5 -46.5t26.5 -74.5q0 -53 -44 -99q48 -34 48 -84q0 -74 -60.5 -111t-129.5 -37q-61 0 -113.5 24.5t-73.5 57.5zM311 312q0 37 -106 72q-9 3 -14 5q-25 -21 -25 -51q0 -25 25.5 -39.5t78.5 -32.5q10 -3 15 -5q26 20 26 51z" />
    <glyph glyph-name="copyright" unicode="&#xa9;" horiz-adv-x="569" 
d="M40 230q0 101 71.5 173t172.5 72t173 -72t72 -173t-72 -173t-173 -72t-172.5 72t-71.5 173zM117 230q0 -69 49 -118.5t118 -49.5t118.5 49.5t49.5 118.5t-49.5 118.5t-118.5 49.5t-118 -49.5t-49 -118.5zM219 230q0 -27 19.5 -47.5t46.5 -20.5q19 0 36.5 11.5t25.5 29.5
l63 -39q-18 -34 -51.5 -54.5t-73.5 -20.5q-59 0 -100 41.5t-41 99.5t41 99.5t100 41.5q40 0 73.5 -21t51.5 -55l-63 -39q-8 18 -25 30t-37 12q-27 0 -46.5 -20.5t-19.5 -47.5z" />
    <glyph glyph-name="guillemotleft" unicode="&#xab;" horiz-adv-x="500" 
d="M30 235l181 235l90 -63l-143 -172l143 -172l-90 -63zM470 97l-82 -64l-168 202l168 192l82 -66l-123 -126z" />
    <glyph glyph-name="uni00AD" unicode="&#xad;" horiz-adv-x="435" 
d="M50 188v103h335v-103h-335z" />
    <glyph glyph-name="registered" unicode="&#xae;" horiz-adv-x="569" 
d="M325 114l-31 75h-39v-75h-73v228h140q32 -1 54 -23.5t22 -53.5q0 -42 -35 -64l45 -87h-83zM326 265q0 10 -7 17t-17 7h-47v-47h47q10 0 17 6.5t7 16.5zM40 230q0 101 71.5 173t172.5 72t173 -72t72 -173t-72 -173t-173 -72t-172.5 72t-71.5 173zM117 230q0 -69 49 -118.5
t118 -49.5t118.5 49.5t49.5 118.5t-49.5 118.5t-118.5 49.5t-118 -49.5t-49 -118.5z" />
    <glyph glyph-name="degree" unicode="&#xb0;" horiz-adv-x="259" 
d="M10 545q0 53 33 86.5t86 33.5t86.5 -33.5t33.5 -86.5t-33.5 -86t-86.5 -33t-86 33t-33 86zM83 545q0 -21 12.5 -33.5t33.5 -12.5t33.5 12.5t12.5 33.5t-12.5 33.5t-33.5 12.5t-33.5 -12.5t-12.5 -33.5z" />
    <glyph glyph-name="plusminus" unicode="&#xb1;" horiz-adv-x="545" 
d="M50 325v113h161v141h123v-141h161v-113h-161v-141h-123v141h-161zM50 35v113h445v-113h-445z" />
    <glyph glyph-name="paragraph" unicode="&#xb6;" horiz-adv-x="531" 
d="M20 515q0 77 54 131t131 54h76v-760h-76v390q-77 0 -131 54t-54 131zM471 700v-760h-126v760h126z" />
    <glyph glyph-name="periodcentered" unicode="&#xb7;" horiz-adv-x="272" 
d="M60 246q0 32 22 54.5t54 22.5t54 -22.5t22 -54.5t-22 -53.5t-54 -21.5t-54 21.5t-22 53.5z" />
    <glyph glyph-name="guillemotright" unicode="&#xbb;" horiz-adv-x="500" 
d="M289 470l181 -235l-181 -235l-90 63l143 172l-143 172zM112 33l-82 64l123 138l-123 126l82 66l168 -192z" />
    <glyph glyph-name="afii10023" unicode="&#x401;" horiz-adv-x="554" 
d="M80 781q0 32 22 54.5t54 22.5t54 -22.5t22 -54.5t-22 -53.5t-54 -21.5t-54 21.5t-22 53.5zM320 781q0 32 22 54.5t54 22.5t54 -22.5t22 -54.5t-22 -53.5t-54 -21.5t-54 21.5t-22 53.5zM60 0v650h444v-105h-318v-165h263v-100h-263v-175h328v-105h-454z" />
    <glyph glyph-name="afii10051" unicode="&#x402;" horiz-adv-x="676" 
d="M462 650v-105h-153v-169q21 50 59.5 74.5t84.5 24.5q163 0 163 -200v-112q0 -178 -147 -178q-15 0 -41.5 4t-34.5 9l13 96q10 -4 33 -4q51 0 51 83v87q0 66 -16.5 89.5t-54.5 23.5q-49 0 -78.5 -41t-31.5 -97v-235h-126v545h-153v105h432z" />
    <glyph glyph-name="afii10052" unicode="&#x403;" horiz-adv-x="509" 
d="M272 939h139l-105 -219h-106q71 219 72 219zM479 650v-115h-283v-535h-136v650h419z" />
    <glyph glyph-name="afii10053" unicode="&#x404;" horiz-adv-x="662" 
d="M361 558q-67 0 -119 -43.5t-68 -124.5h275l4 -100h-284q8 -100 62 -149t130 -49q55 0 92.5 23t69.5 72l99 -66q-45 -71 -108 -103.5t-153 -32.5q-148 0 -234.5 91t-86.5 249t86.5 249t234.5 91q169 0 259 -126l-97 -75q-32 48 -69.5 71t-92.5 23z" />
    <glyph glyph-name="afii10054" unicode="&#x405;" horiz-adv-x="601" 
d="M561 185q0 -96 -77 -148t-186 -52q-75 0 -149.5 25.5t-112.5 86.5l85 92q23 -34 76 -58t101 -24q59 0 88 22.5t29 55.5q0 29 -23 48t-84 35q-133 34 -192 79t-59 133q0 86 65 135.5t175 49.5q170 0 235 -77l-77 -96q-70 58 -158 58q-43 0 -68.5 -16.5t-25.5 -50.5
q0 -29 19.5 -45.5t84.5 -35.5q112 -33 144 -48q101 -48 109 -149q1 -9 1 -20z" />
    <glyph glyph-name="uni0406" unicode="&#x406;" 
d="M186 650v-650h-126v650h126z" />
    <glyph glyph-name="afii10056" unicode="&#x407;" 
d="M186 650v-650h-126v650h126zM-53 791q0 32 22 54.5t54 22.5t54 -22.5t22 -54.5t-22 -53.5t-54 -21.5t-54 21.5t-22 53.5zM147 791q0 32 22 54.5t54 22.5t54 -22.5t22 -54.5t-22 -53.5t-54 -21.5t-54 21.5t-22 53.5z" />
    <glyph glyph-name="afii10057" unicode="&#x408;" horiz-adv-x="396" 
d="M336 650v-448q0 -108 -49.5 -162.5t-134.5 -54.5q-72 0 -132 38l39 95q40 -24 76 -24q40 0 57.5 31t17.5 96v429h126z" />
    <glyph glyph-name="afii10058" unicode="&#x409;" horiz-adv-x="943" 
d="M573 650v-231h90q115 0 182.5 -52.5t67.5 -160.5q0 -107 -67 -156.5t-183 -49.5h-216v545h-181v-166q0 -218 -46 -305t-158 -90q-33 0 -52 4v106q29 -4 43 -1q33 6 53.5 33.5t28.5 79t9.5 85.5t1.5 96v20v243h427zM628 317h-55v-214h55q81 0 120 20.5t39 82.5
q0 63 -40.5 87t-118.5 24z" />
    <glyph glyph-name="afii10059" unicode="&#x40a;" horiz-adv-x="924" 
d="M554 650v-231h90q115 0 182.5 -52.5t67.5 -160.5q0 -107 -67 -156.5t-183 -49.5h-215v280h-243v-280h-126v650h126v-270h243v270h125zM609 317h-55v-214h55q81 0 120 20.5t39 82.5q0 63 -40.5 87t-118.5 24z" />
    <glyph glyph-name="afii10060" unicode="&#x40b;" horiz-adv-x="676" 
d="M462 650v-105h-153v-169q21 50 59.5 74.5t84.5 24.5q163 0 163 -200v-275h-126v260q0 66 -16.5 89.5t-54.5 23.5q-49 0 -78.5 -41t-31.5 -97v-235h-126v545h-153v105h432z" />
    <glyph glyph-name="afii10061" unicode="&#x40c;" horiz-adv-x="636" 
d="M196 650v-262h16q25 0 46.5 9t35.5 21.5t27.5 35.5t21 39t18.5 44q33 83 85.5 107t128.5 11v-129q-55 9 -76 -6t-47 -68q-29 -59 -53 -79.5t-61 -32.5v-7q47 -11 76.5 -34.5t59.5 -86.5q28 -58 41 -71q28 -29 81 -18v-128q-4 -2 -18.5 -3.5t-26.5 -1.5h-12
q-63 0 -95 26.5t-66 101.5q-47 103 -75.5 129t-90.5 26h-16v-273h-136v650h136zM322 939h139l-105 -219h-106q71 219 72 219z" />
    <glyph glyph-name="afii10062" unicode="&#x40e;" horiz-adv-x="637" 
d="M617 650l-234 -505q-44 -95 -85 -127.5t-93 -32.5q-67 0 -120 37l39 111q29 -22 66 -22q23 0 36 12t23 33l13 26l-242 468h144l167 -332l151 332h135zM386 867h128q0 -93 -54.5 -135t-132.5 -42t-130.5 42t-52.5 135h128q0 -45 12.5 -66t44.5 -21t44.5 21t12.5 66z" />
    <glyph glyph-name="afii10145" unicode="&#x40f;" horiz-adv-x="675" 
d="M489 105v545h126v-650h-215v-156h-126v156h-214v650h126v-545h303z" />
    <glyph glyph-name="afii10017" unicode="&#x410;" horiz-adv-x="681" 
d="M524 0l-49 138h-269l-49 -138h-137l247 650h147l247 -650h-137zM340 530l-97 -287h195z" />
    <glyph glyph-name="afii10018" unicode="&#x411;" horiz-adv-x="616" 
d="M519 650v-115h-323v-116h135q49 0 91.5 -11t77.5 -34t55.5 -63.5t20.5 -94.5q0 -106 -71.5 -161t-173.5 -55h-271v650h459zM281 307h-85v-194h85q83 0 121 22t38 81q0 56 -37 73.5t-122 17.5z" />
    <glyph glyph-name="afii10019" unicode="&#x412;" horiz-adv-x="633" 
d="M60 0v650h256q123 0 184.5 -42.5t61.5 -114.5q0 -125 -116 -149v-5q75 -9 111 -54t36 -105q0 -78 -61 -129t-185 -51h-287zM196 276v-171h119q73 0 105 20t32 67q0 46 -37.5 65t-119.5 19h-99zM196 386h79q80 0 113.5 17t33.5 65q0 43 -33.5 60t-104.5 17h-88v-159z" />
    <glyph glyph-name="afii10020" unicode="&#x413;" horiz-adv-x="509" 
d="M479 650v-115h-283v-535h-136v650h419z" />
    <glyph glyph-name="afii10021" unicode="&#x414;" horiz-adv-x="726" 
d="M10 -156v271h20q29 0 52 19.5t36 55t21 70t11 80t4 68t1 50.5v192h485v-535h76v-271h-136v156h-434v-156h-136zM288 535v-48q0 -331 -97 -372h313v420h-216z" />
    <glyph glyph-name="afii10022" unicode="&#x415;" horiz-adv-x="564" 
d="M60 0v650h454v-115h-318v-150h263v-110h-263v-160h328v-115h-464z" />
    <glyph glyph-name="afii10024" unicode="&#x416;" horiz-adv-x="996" 
d="M430 388v262h136v-262h16q14 0 26.5 2t23.5 9t18.5 11t16.5 17t13 17.5t12 22t9.5 21.5t10 25.5t9.5 23.5q33 83 85.5 107t128.5 11v-129q-55 9 -76 -6t-47 -68q-30 -61 -50.5 -81t-53.5 -31v-7q44 -11 70 -34t56 -87q28 -58 41 -71q28 -29 81 -18v-128q-4 -2 -18.5 -3.5
t-26.5 -1.5h-12q-63 0 -95 26.5t-66 101.5q-49 106 -72.5 130.5t-83.5 24.5h-16v-273h-136v273h-16q-60 0 -83.5 -24.5t-72.5 -130.5q-34 -75 -66 -101.5t-95 -26.5q-47 0 -57 5v128q34 -7 57.5 4t33 25t25.5 48l6 12q30 64 56 87t70 34v7q-33 11 -53.5 31t-50.5 81
q-26 53 -47 68t-76 6v129q76 13 128.5 -11t85.5 -107q2 -5 8.5 -22t8.5 -22t9 -20t10.5 -20.5t11 -17t13 -16.5t15 -12.5t18.5 -10.5t20.5 -5.5t24.5 -2.5h16z" />
    <glyph glyph-name="afii10025" unicode="&#x417;" horiz-adv-x="635" 
d="M40 104l80 83q45 -45 88.5 -65t100.5 -20q74 0 112.5 27.5t38.5 68.5q0 27 -9.5 45.5t-23.5 28.5t-37 15.5t-42.5 7t-48.5 1.5h-58v109h53q76 0 106.5 20t30.5 57q0 71 -139 71q-101 0 -162 -77l-80 84q78 105 252 105q121 0 191.5 -44.5t70.5 -124.5q0 -52 -28.5 -94
t-87.5 -50v-6q147 -26 147 -157q0 -88 -72 -146t-211 -58q-188 0 -272 119z" />
    <glyph glyph-name="afii10026" unicode="&#x418;" horiz-adv-x="689" 
d="M493 453l-290 -453h-143v650h136v-453l290 453h143v-650h-136v453z" />
    <glyph glyph-name="afii10027" unicode="&#x419;" horiz-adv-x="689" 
d="M493 453l-290 -453h-143v650h136v-453l290 453h143v-650h-136v453zM412 867h128q0 -93 -54.5 -135t-132.5 -42t-130.5 42t-52.5 135h128q0 -45 12.5 -66t44.5 -21t44.5 21t12.5 66z" />
    <glyph glyph-name="afii10028" unicode="&#x41a;" horiz-adv-x="636" 
d="M196 650v-262h16q25 0 46.5 9t35.5 21.5t27.5 35.5t21 39t18.5 44q33 83 85.5 107t128.5 11v-129q-55 9 -76 -6t-47 -68q-29 -59 -53 -79.5t-61 -32.5v-7q47 -11 76.5 -34.5t59.5 -86.5q28 -58 41 -71q28 -29 81 -18v-128q-4 -2 -18.5 -3.5t-26.5 -1.5h-12
q-63 0 -95 26.5t-66 101.5q-47 103 -75.5 129t-90.5 26h-16v-273h-136v650h136z" />
    <glyph glyph-name="afii10029" unicode="&#x41b;" horiz-adv-x="703" 
d="M276 535v-156q0 -216 -50 -304t-164 -91q-33 0 -52 4v116q29 -4 43 -1q33 6 53.5 33.5t28.5 79t9.5 85.5t1.5 96v20v233h497v-650h-136v535h-231z" />
    <glyph glyph-name="afii10030" unicode="&#x41c;" horiz-adv-x="811" 
d="M347 120l-151 300v-420h-136v650h146l200 -392l200 392h145v-650h-135v420l-158 -300h-111z" />
    <glyph glyph-name="afii10031" unicode="&#x41d;" horiz-adv-x="684" 
d="M196 275v-275h-136v650h136v-265h293v265h135v-650h-135v275h-293z" />
    <glyph glyph-name="afii10032" unicode="&#x41e;" horiz-adv-x="742" 
d="M40 325q0 153 89 246.5t242 93.5t242 -93.5t89 -246.5t-89 -246.5t-242 -93.5t-242 93.5t-89 246.5zM178 325q0 -103 51.5 -163t141.5 -60q91 0 142 60t51 163q0 104 -51 163.5t-142 59.5q-90 0 -141.5 -59.5t-51.5 -163.5z" />
    <glyph glyph-name="afii10033" unicode="&#x41f;" horiz-adv-x="690" 
d="M196 535v-535h-136v650h570v-650h-136v535h-298z" />
    <glyph glyph-name="afii10034" unicode="&#x420;" horiz-adv-x="576" 
d="M196 231v-231h-136v650h236q116 0 183 -49.5t67 -156.5q0 -108 -67.5 -160.5t-182.5 -52.5h-100zM196 343h65q81 0 115 21.5t34 79.5q0 56 -35 74.5t-114 18.5h-65v-194z" />
    <glyph glyph-name="afii10035" unicode="&#x421;" horiz-adv-x="682" 
d="M178 325q0 -116 56.5 -169.5t140.5 -53.5q110 0 171 89l96 -71q-86 -135 -269 -135q-150 0 -241.5 89.5t-91.5 245.5q0 157 91 251t240 94q173 0 260 -126l-94 -77q-35 49 -71.5 67.5t-94.5 18.5q-82 0 -137.5 -56t-55.5 -167z" />
    <glyph glyph-name="afii10036" unicode="&#x422;" horiz-adv-x="592" 
d="M562 650v-115h-198v-535h-136v535h-198v115h532z" />
    <glyph glyph-name="afii10037" unicode="&#x423;" horiz-adv-x="637" 
d="M617 650l-234 -505q-44 -95 -85 -127.5t-93 -32.5q-67 0 -120 37l39 111q29 -22 66 -22q23 0 36 12t23 33l13 26l-242 468h144l167 -332l151 332h135z" />
    <glyph glyph-name="afii10038" unicode="&#x424;" horiz-adv-x="782" 
d="M30 325q0 126 82 191t212 65v69h136v-69q129 0 210.5 -65t81.5 -191t-81.5 -190.5t-210.5 -64.5v-70h-136v70q-130 0 -212 64.5t-82 190.5zM324 468q-80 0 -119 -35t-39 -108t38.5 -107.5t119.5 -34.5v285zM460 468v-285q81 0 118.5 34.5t37.5 107.5q0 74 -37.5 108.5
t-118.5 34.5z" />
    <glyph glyph-name="afii10039" unicode="&#x425;" horiz-adv-x="688" 
d="M20 0l244 337l-224 313h167l137 -218l142 218h162l-225 -313l245 -337h-167l-158 237l-161 -237h-162z" />
    <glyph glyph-name="afii10040" unicode="&#x426;" horiz-adv-x="706" 
d="M60 0v650h136v-535h288v535h136v-535h76v-271h-136v156h-500z" />
    <glyph glyph-name="afii10041" unicode="&#x427;" horiz-adv-x="645" 
d="M40 650h136v-170q0 -55 9.5 -90t29 -51.5t40 -22t52.5 -5.5q82 0 142 54v285h136v-650h-136v260q-77 -62 -177 -62q-32 0 -62 6t-61.5 22.5t-54.5 41.5t-38 67t-15 95z" />
    <glyph glyph-name="afii10042" unicode="&#x428;" horiz-adv-x="934" 
d="M738 115v535h136v-650h-814v650h136v-535h203v535h136v-535h203z" />
    <glyph glyph-name="afii10043" unicode="&#x429;" horiz-adv-x="960" 
d="M738 115v535h136v-535h76v-271h-136v156h-754v650h136v-535h203v535h136v-535h203z" />
    <glyph glyph-name="afii10044" unicode="&#x42a;" horiz-adv-x="671" 
d="M10 532v118h271v-211h100q114 0 187 -57.5t73 -165.5q0 -107 -72 -161.5t-188 -54.5h-236v532h-135zM346 327h-65v-214h65q81 0 120 20.5t39 82.5q0 63 -40.5 87t-118.5 24z" />
    <glyph glyph-name="afii10045" unicode="&#x42b;" horiz-adv-x="836" 
d="M776 650v-650h-136v650h136zM196 650v-211h100q114 0 187 -57.5t73 -165.5q0 -107 -72 -161.5t-188 -54.5h-236v650h136zM261 327h-65v-214h65q81 0 120 20.5t39 82.5q0 63 -40.5 87t-118.5 24z" />
    <glyph glyph-name="afii10046" unicode="&#x42c;" horiz-adv-x="586" 
d="M196 650v-211h100q114 0 187 -57.5t73 -165.5q0 -107 -72 -161.5t-188 -54.5h-236v650h136zM261 327h-65v-214h65q81 0 120 20.5t39 82.5q0 63 -40.5 87t-118.5 24z" />
    <glyph glyph-name="afii10047" unicode="&#x42d;" horiz-adv-x="682" 
d="M216 290v100h282q-14 80 -62 119t-115 39q-60 0 -100.5 -19t-75.5 -67l-94 77q87 126 270 126q148 0 234.5 -90t86.5 -248t-87.5 -250t-235.5 -92q-193 0 -279 135l96 71q61 -89 181 -89q76 0 126.5 45t58.5 143h-286z" />
    <glyph glyph-name="afii10048" unicode="&#x42e;" horiz-adv-x="992" 
d="M196 275v-275h-136v650h136v-265h117q17 127 102.5 203.5t215.5 76.5q144 0 232.5 -94.5t88.5 -245.5t-88.5 -245.5t-232.5 -94.5q-132 0 -218.5 80t-100.5 210h-116zM444 325q0 -107 51 -165t136 -58q84 0 133.5 60t49.5 163t-49.5 163t-133.5 60q-85 0 -136 -57.5
t-51 -165.5z" />
    <glyph glyph-name="afii10049" unicode="&#x42f;" horiz-adv-x="653" 
d="M457 0v236h-42q-70 0 -100.5 -18t-64.5 -82q-7 -13 -18.5 -37t-17.5 -36t-18 -28.5t-24.5 -24.5t-31.5 -14t-44 -6q-38 0 -56 5v117q13 -2 22.5 -2.5t17.5 2.5t12.5 5.5t10.5 12t8.5 14.5t9.5 20t11 23q21 43 43.5 63.5t65.5 30.5v5q-75 10 -114.5 50t-39.5 124
q0 93 74.5 141.5t190.5 48.5h241v-650h-136zM392 343h65v204h-65q-37 0 -63.5 -3.5t-52.5 -13.5t-39.5 -31.5t-13.5 -53.5q0 -59 41.5 -80.5t127.5 -21.5z" />
    <glyph glyph-name="afii10065" unicode="&#x430;" horiz-adv-x="534" 
d="M125 330l-56 75q84 70 178 70q211 0 211 -188v-148q0 -21 2 -31t12.5 -16.5t31.5 -5.5v-96q-21 -2 -62 -2q-74 0 -94 52q-65 -55 -168 -55q-70 0 -110 38t-40 100q0 46 20 79t49 50.5t73.5 28t79.5 13t80 2.5q0 42 -27.5 60.5t-66.5 18.5q-68 0 -113 -45zM332 126v82
q-175 0 -175 -73q0 -53 65 -53q66 0 110 44z" />
    <glyph glyph-name="afii10066" unicode="&#x431;" horiz-adv-x="574" 
d="M534 230q0 -110 -66 -177.5t-181 -67.5q-123 0 -185 73.5t-62 201.5q0 201 65.5 292t180.5 109q30 5 47.5 9t41.5 11.5t38 20t18 28.5h74q4 -76 -38 -127t-161 -65q-124 -14 -155 -134l9 -3q42 64 137 64q109 0 173 -63t64 -172zM166 225q0 -59 32.5 -98t88.5 -39
q57 0 89 39t32 98q0 60 -32 99t-89 39q-56 0 -88.5 -39t-32.5 -99z" />
    <glyph glyph-name="afii10067" unicode="&#x432;" horiz-adv-x="501" 
d="M291 0h-231v460h220q167 0 167 -111q0 -37 -26 -65t-62 -33v-6q45 -3 78.5 -32.5t33.5 -83.5q0 -61 -45 -95t-135 -34zM186 200v-114h76q40 0 59.5 12.5t19.5 44.5q0 57 -86 57h-69zM262 374h-76v-86h65q67 0 67 42q0 44 -56 44z" />
    <glyph glyph-name="afii10068" unicode="&#x433;" horiz-adv-x="406" 
d="M186 357v-357h-126v460h316v-103h-190z" />
    <glyph glyph-name="afii10069" unicode="&#x434;" horiz-adv-x="602" 
d="M20 102h21q27 0 51.5 30t35.5 80q12 52 14 248h367v-357h63v-239h-123v136h-306v-137h-123v239zM382 357h-125q0 -14 -0.5 -27.5t-0.5 -23.5t-1 -25q-9 -136 -60 -178h187v254z" />
    <glyph glyph-name="afii10070" unicode="&#x435;" horiz-adv-x="537" 
d="M40 230q0 112 67.5 178.5t162.5 66.5q109 0 168 -61.5t59 -177.5v-48h-331q2 -48 39.5 -74t81.5 -26q82 0 131 57l72 -71q-67 -89 -203 -89q-120 0 -183.5 66.5t-63.5 178.5zM275 373q-41 0 -70 -25t-35 -72h205q-9 97 -100 97z" />
    <glyph glyph-name="afii10072" unicode="&#x436;" horiz-adv-x="794" 
d="M334 288v172h126v-172h24q20 0 34 11.5t20 24.5t16 38.5t17 38.5q46 88 171 69v-106q-40 3 -57 -7.5t-28 -36.5q-23 -57 -80 -75v-6q38 -12 59.5 -29t35.5 -52q18 -42 33 -54.5t49 -6.5v-103q-28 -4 -61 -4q-80 0 -120 90q-21 50 -37 73t-26.5 27.5t-30.5 4.5h-19v-185
h-126v185h-19q-20 0 -30.5 -4.5t-26.5 -27.5t-37 -73q-40 -90 -120 -90q-33 0 -61 4v103q34 -6 49 6.5t33 54.5q14 35 35.5 52t59.5 29v6q-57 18 -80 75q-11 26 -28 36.5t-57 7.5v106q125 19 171 -69q7 -13 17 -38.5t16 -38.5t20 -24.5t34 -11.5h24z" />
    <glyph glyph-name="afii10073" unicode="&#x437;" horiz-adv-x="486" 
d="M30 74l62 69q58 -65 139 -65q94 0 94 68q0 54 -93 54h-64v88h60q76 0 76 45q0 44 -85 44q-65 0 -114 -49l-62 71q72 76 188 76q89 0 146 -35.5t57 -93.5q0 -30 -23.5 -59.5t-62.5 -33.5v-4q50 -3 79 -36t29 -81q0 -60 -54.5 -103.5t-166.5 -43.5q-141 0 -205 89z" />
    <glyph glyph-name="afii10074" unicode="&#x438;" horiz-adv-x="568" 
d="M186 169l191 291h131v-460h-126v291l-191 -291h-131v460h126v-291z" />
    <glyph glyph-name="afii10075" unicode="&#x439;" horiz-adv-x="568" 
d="M330 664h105q0 -71 -35 -111.5t-120 -40.5t-120 40.5t-35 111.5h105q0 -67 50 -67t50 67zM186 169l191 291h131v-460h-126v291l-191 -291h-131v460h126v-291z" />
    <glyph glyph-name="afii10076" unicode="&#x43a;" horiz-adv-x="530" 
d="M186 460v-172h24q23 0 39.5 11.5t23.5 24t17.5 39t16.5 38.5q46 88 171 69v-106q-40 3 -57 -7.5t-28 -36.5q-23 -57 -80 -75v-6q38 -12 59.5 -29t35.5 -52q18 -42 33 -54.5t49 -6.5v-103l-61 -4q-80 0 -120 90q-32 76 -47.5 90.5t-56.5 14.5h-19v-185h-126v460h126z" />
    <glyph glyph-name="afii10077" unicode="&#x43b;" horiz-adv-x="557" 
d="M370 357h-126v-37t-0.5 -41.5t-1.5 -37t-3.5 -41.5t-6.5 -37t-10 -41.5t-14 -37.5q-48 -110 -188 -91v100q47 -5 70.5 30t30.5 87q11 92 11 250h365v-460h-127v357z" />
    <glyph glyph-name="afii10078" unicode="&#x43c;" horiz-adv-x="684" 
d="M498 0v307l-113 -210h-93l-106 210v-307h-126v460h163l119 -238l119 238h163v-460h-126z" />
    <glyph glyph-name="afii10079" unicode="&#x43d;" horiz-adv-x="553" 
d="M186 185v-185h-126v460h126v-172h181v172h126v-460h-126v185h-181z" />
    <glyph glyph-name="afii10080" unicode="&#x43e;" horiz-adv-x="574" 
d="M40 230q0 110 66.5 177.5t180.5 67.5t180.5 -67.5t66.5 -177.5q0 -111 -66 -178t-181 -67t-181 67.5t-66 177.5zM166 230q0 -60 32.5 -101t88.5 -41t88.5 41t32.5 101q0 61 -32.5 102t-88.5 41t-88.5 -41.5t-32.5 -101.5z" />
    <glyph glyph-name="afii10081" unicode="&#x43f;" horiz-adv-x="548" 
d="M186 357v-357h-126v460h428v-460h-126v357h-176z" />
    <glyph glyph-name="afii10082" unicode="&#x440;" horiz-adv-x="578" 
d="M176 460v-74q54 89 154 89q96 0 152 -64.5t56 -179.5t-57 -179.5t-151 -64.5q-101 0 -144 79v-250h-126v644h116zM182 231q0 -67 30.5 -104.5t83.5 -37.5q57 0 84.5 40t27.5 102t-27.5 102t-84.5 40q-53 0 -83.5 -37.5t-30.5 -104.5z" />
    <glyph glyph-name="afii10083" unicode="&#x441;" horiz-adv-x="528" 
d="M166 230q0 -60 32.5 -101t88.5 -41q79 0 116 57l85 -69q-65 -91 -201 -91q-115 0 -181 66t-66 176t66.5 179t180.5 69q134 0 201 -91l-85 -71q-39 60 -116 60q-56 0 -88.5 -41.5t-32.5 -101.5z" />
    <glyph glyph-name="afii10084" unicode="&#x442;" horiz-adv-x="476" 
d="M175 357h-145v103h416v-103h-145v-357h-126v357z" />
    <glyph glyph-name="afii10085" unicode="&#x443;" horiz-adv-x="539" 
d="M519 460l-183 -479q-42 -109 -96 -143t-164 -22v109q64 -6 92.5 7t41.5 49l7 19l-187 460h133l119 -324l107 324h130z" />
    <glyph glyph-name="afii10086" unicode="&#x444;" horiz-adv-x="854" 
d="M364 -184v240q-37 -71 -124 -71q-94 0 -142 66t-48 179t48 179t142 66q75 0 124 -64v239h126v-239q49 64 124 64q94 0 142 -66t48 -179t-48 -179t-142 -66q-87 0 -124 71v-240h-126zM674 230q0 75 -26 109t-67 34q-42 0 -66.5 -37.5t-26.5 -105.5q0 -142 93 -142
q41 0 67 34t26 108zM180 230q0 -74 26 -108t67 -34q93 0 93 142q-2 68 -26.5 105.5t-66.5 37.5q-41 0 -67 -34t-26 -109z" />
    <glyph glyph-name="afii10087" unicode="&#x445;" horiz-adv-x="531" 
d="M20 0l173 240l-158 220h145l85 -140l86 140h145l-159 -220l174 -240h-145l-101 159l-100 -159h-145z" />
    <glyph glyph-name="afii10088" unicode="&#x446;" horiz-adv-x="594" 
d="M186 103h177v357h126v-357h75v-239h-123v136h-381v460h126v-357z" />
    <glyph glyph-name="afii10089" unicode="&#x447;" horiz-adv-x="523" 
d="M337 270v190h126v-460h-126v178q-49 -42 -120 -42q-21 0 -40 2.5t-45.5 13t-45.5 28.5t-32.5 52t-13.5 80v148h126v-104q0 -67 18 -93t64 -26q48 0 89 33z" />
    <glyph glyph-name="afii10090" unicode="&#x448;" horiz-adv-x="743" 
d="M186 103h122v357h127v-357h122v357h126v-460h-623v460h126v-357z" />
    <glyph glyph-name="afii10091" unicode="&#x449;" horiz-adv-x="778" 
d="M683 98h75v-234h-123v136h-575v460h126v-362h122v362h127v-362h122v362h126v-362z" />
    <glyph glyph-name="afii10092" unicode="&#x44a;" horiz-adv-x="534" 
d="M316 0h-206v354h-90v106h217v-145h79q188 0 188 -155q0 -80 -50 -120t-138 -40zM237 98h72q72 0 72 62q0 30 -17 43.5t-55 13.5h-72v-119z" />
    <glyph glyph-name="afii10093" unicode="&#x44b;" horiz-adv-x="686" 
d="M499 0v460h127v-460h-127zM256 0h-196v460h127v-145h69q188 0 188 -155q0 -80 -50 -120t-138 -40zM187 98h62q72 0 72 62q0 30 -17 43.5t-55 13.5h-62v-119z" />
    <glyph glyph-name="afii10094" unicode="&#x44c;" horiz-adv-x="484" 
d="M266 0h-206v460h127v-145h79q188 0 188 -155q0 -80 -50 -120t-138 -40zM187 98h72q72 0 72 62q0 30 -17 43.5t-55 13.5h-72v-119z" />
    <glyph glyph-name="afii10095" unicode="&#x44d;" horiz-adv-x="528" 
d="M197 193v88h163q-6 41 -38.5 66.5t-77.5 25.5q-85 0 -121 -56l-80 67q67 91 201 91q114 0 179 -67t65 -178t-65.5 -178t-179.5 -67q-138 0 -203 91l84 68q36 -56 119 -56q48 0 80.5 30t36.5 75h-163z" />
    <glyph glyph-name="afii10096" unicode="&#x44e;" horiz-adv-x="774" 
d="M186 185v-185h-126v460h126v-172h72q16 87 76.5 137t157.5 50q114 0 178 -67t64 -178t-63.5 -178t-178.5 -67q-102 0 -163 54t-73 146h-70zM376 230q0 -60 30.5 -101t85.5 -41q56 0 86 40.5t30 101.5t-30 102t-86 41q-55 0 -85.5 -41t-30.5 -102z" />
    <glyph glyph-name="afii10097" unicode="&#x44f;" horiz-adv-x="521" 
d="M184 193v4q-54 2 -87.5 35.5t-33.5 87.5q0 71 48.5 105.5t120.5 34.5h229v-460h-126v159h-16q-47 0 -62 -12t-39 -62q-16 -34 -34 -55.5t-38 -29.5t-32 -9.5t-34 -1.5q-23 0 -50 5v96q27 -2 42.5 6t29.5 35q12 23 28 37t25 17t29 8zM193 309q0 -38 25 -50.5t67 -12.5h50
v121h-45q-97 0 -97 -58z" />
    <glyph glyph-name="afii10071" unicode="&#x451;" horiz-adv-x="537" 
d="M40 230q0 112 67.5 178.5t162.5 66.5q109 0 168 -61.5t59 -177.5v-48h-331q2 -48 39.5 -74t81.5 -26q82 0 131 57l72 -71q-67 -89 -203 -89q-120 0 -183.5 66.5t-63.5 178.5zM275 373q-41 0 -70 -25t-35 -72h205q-9 97 -100 97zM77 621q0 32 22 54.5t54 22.5t54 -22.5
t22 -54.5t-22 -53.5t-54 -21.5t-54 21.5t-22 53.5zM317 621q0 32 22 54.5t54 22.5t54 -22.5t22 -54.5t-22 -53.5t-54 -21.5t-54 21.5t-22 53.5z" />
    <glyph glyph-name="afii10099" unicode="&#x452;" horiz-adv-x="610" 
d="M40 590h77v60h126v-60h91v-93h-91v-121q21 50 59.5 74.5t84.5 24.5q163 0 163 -200v-285q0 -178 -147 -178q-15 0 -41.5 4t-34.5 9l13 96q10 -4 33 -4q51 0 51 83v260q0 66 -16.5 89.5t-54.5 23.5q-49 0 -78.5 -41t-31.5 -97v-235h-126v497h-77v93z" />
    <glyph glyph-name="afii10100" unicode="&#x453;" horiz-adv-x="416" 
d="M186 357v-357h-126v460h326v-103h-200zM212 741h129l-105 -219h-86q61 219 62 219z" />
    <glyph glyph-name="afii10101" unicode="&#x454;" horiz-adv-x="528" 
d="M287 373q-44 0 -75 -26t-39 -66h160v-88h-164q5 -45 37.5 -75t80.5 -30q81 0 117 56l84 -68q-65 -91 -201 -91q-115 0 -181 67.5t-66 177.5t66.5 177.5t180.5 67.5q134 0 201 -91l-83 -67q-36 56 -118 56z" />
    <glyph glyph-name="afii10102" unicode="&#x455;" horiz-adv-x="478" 
d="M425 420l-51 -81q-69 44 -127 44q-73 0 -73 -45q0 -6 1.5 -11t6.5 -8.5t9.5 -6.5t14 -6t17.5 -5.5t23 -6.5t27 -8q39 -12 56.5 -18.5t43.5 -19.5t36.5 -27t19.5 -37.5t9 -54.5q0 -62 -53 -103t-140 -41q-64 0 -119.5 23t-85.5 65l58 70q68 -65 142 -65q33 0 57 12t24 39
q0 21 -18 32.5t-68 26.5q-54 16 -80 26t-52.5 27t-36 39.5t-9.5 57.5q0 73 53.5 105t131.5 32q55 0 105.5 -15.5t77.5 -39.5z" />
    <glyph glyph-name="afii10103" unicode="&#x456;" 
d="M60 0v460h126v-460h-126zM47 621q0 32 22 54.5t54 22.5t54 -22.5t22 -54.5t-22 -53.5t-54 -21.5t-54 21.5t-22 53.5z" />
    <glyph glyph-name="afii10104" unicode="&#x457;" 
d="M60 0v460h126v-460h-126zM-53 621q0 32 22 54.5t54 22.5t54 -22.5t22 -54.5t-22 -53.5t-54 -21.5t-54 21.5t-22 53.5zM147 621q0 32 22 54.5t54 22.5t54 -22.5t22 -54.5t-22 -53.5t-54 -21.5t-54 21.5t-22 53.5z" />
    <glyph glyph-name="afii10105" unicode="&#x458;" 
d="M186 460v-470q0 -178 -147 -178q-15 0 -41.5 4t-34.5 9l13 96q10 -4 33 -4q51 0 51 83v460h126zM47 621q0 32 22 54.5t54 22.5t54 -22.5t22 -54.5t-22 -53.5t-54 -21.5t-54 21.5t-22 53.5z" />
    <glyph glyph-name="afii10106" unicode="&#x459;" horiz-adv-x="794" 
d="M576 0h-206v357h-126v-37.5t-0.5 -41.5t-1.5 -37.5t-3.5 -42t-6.5 -37.5t-10 -42t-14 -38q-48 -110 -188 -91v100q61 -7 87 60q25 64 25 310h365v-145h79q188 0 188 -155q0 -80 -50 -120t-138 -40zM497 98h72q72 0 72 62q0 30 -17 43.5t-55 13.5h-72v-119z" />
    <glyph glyph-name="afii10107" unicode="&#x45a;" horiz-adv-x="790" 
d="M572 0h-205v185h-181v-185h-126v460h126v-172h181v172h126v-145h79q188 0 188 -155q0 -80 -50 -120t-138 -40zM493 98h72q72 0 72 62q0 30 -17 43.5t-55 13.5h-72v-119z" />
    <glyph glyph-name="afii10108" unicode="&#x45b;" horiz-adv-x="610" 
d="M40 590h77v60h126v-60h91v-93h-91v-121q21 50 59.5 74.5t84.5 24.5q163 0 163 -200v-275h-126v260q0 66 -16.5 89.5t-54.5 23.5q-49 0 -78.5 -41t-31.5 -97v-235h-126v497h-77v93z" />
    <glyph glyph-name="afii10109" unicode="&#x45c;" horiz-adv-x="530" 
d="M186 460v-172h24q23 0 39.5 11.5t23.5 24t17.5 39t16.5 38.5q46 88 171 69v-106q-40 3 -57 -7.5t-28 -36.5q-23 -57 -80 -75v-6q38 -12 59.5 -29t35.5 -52q18 -42 33 -54.5t49 -6.5v-103l-61 -4q-80 0 -120 90q-32 76 -47.5 90.5t-56.5 14.5h-19v-185h-126v460h126z
M262 741h129l-105 -219h-86q61 219 62 219z" />
    <glyph glyph-name="afii10110" unicode="&#x45e;" horiz-adv-x="539" 
d="M519 460l-183 -479q-42 -109 -96 -143t-164 -22v109q64 -6 92.5 7t41.5 49l7 19l-187 460h133l119 -324l107 324h130zM323 664h105q0 -71 -35 -111.5t-120 -40.5t-120 40.5t-35 111.5h105q0 -67 50 -67t50 67z" />
    <glyph glyph-name="afii10193" unicode="&#x45f;" horiz-adv-x="548" 
d="M362 103v357h126v-460h-152v-136h-123v136h-153v460h126v-357h176z" />
    <glyph glyph-name="afii10050" unicode="&#x490;" horiz-adv-x="529" 
d="M499 650v-105h-313v-545h-126v650h439zM383 806h116v-156h-116v156z" />
    <glyph glyph-name="afii10098" unicode="&#x491;" horiz-adv-x="436" 
d="M293 596h113v-239h-220v-357h-126v460h233v136z" />
    <glyph glyph-name="endash" unicode="&#x2013;" horiz-adv-x="515" 
d="M70 188v103h375v-103h-375z" />
    <glyph glyph-name="emdash" unicode="&#x2014;" horiz-adv-x="715" 
d="M100 188v103h515v-103h-515z" />
    <glyph glyph-name="quoteleft" unicode="&#x2018;" horiz-adv-x="221" 
d="M159 461h-129l75 219h86q-31 -219 -32 -219z" />
    <glyph glyph-name="quoteright" unicode="&#x2019;" horiz-adv-x="221" 
d="M62 650h129l-75 -219h-86q31 219 32 219z" />
    <glyph glyph-name="quotesinglbase" unicode="&#x201a;" horiz-adv-x="221" 
d="M62 119h129l-75 -219h-86q31 219 32 219z" />
    <glyph glyph-name="quotedblleft" unicode="&#x201c;" horiz-adv-x="391" 
d="M329 461h-129l75 219h86q-31 -219 -32 -219zM149 461h-129l75 219h86q-31 -219 -32 -219z" />
    <glyph glyph-name="quotedblright" unicode="&#x201d;" horiz-adv-x="391" 
d="M62 650h129l-75 -219h-86q31 219 32 219zM242 650h129l-75 -219h-86q31 219 32 219z" />
    <glyph glyph-name="quotedblbase" unicode="&#x201e;" horiz-adv-x="401" 
d="M62 119h129l-75 -219h-86q31 219 32 219zM242 119h129l-75 -219h-86q31 219 32 219z" />
    <glyph glyph-name="dagger" unicode="&#x2020;" horiz-adv-x="355" 
d="M10 478v103l116 -10l-10 129h121l-10 -129l118 10v-103l-118 10l10 -302h-121l10 302z" />
    <glyph glyph-name="daggerdbl" unicode="&#x2021;" horiz-adv-x="355" 
d="M10 478v103l116 -10l-10 129h121l-10 -129l118 10v-103l-118 10v-87l118 10v-103l-118 10l10 -132h-121l10 132l-116 -10v103l116 -10v87z" />
    <glyph glyph-name="bullet" unicode="&#x2022;" horiz-adv-x="320" 
d="M70 237q0 36 26 63t64 27q36 0 63 -26.5t27 -63.5q0 -38 -27 -64t-63 -26q-38 0 -64 27t-26 63z" />
    <glyph glyph-name="ellipsis" unicode="&#x2026;" horiz-adv-x="672" 
d="M40 70q0 32 22 54.5t54 22.5t54 -22.5t22 -54.5t-22 -53.5t-54 -21.5t-54 21.5t-22 53.5zM480 70q0 32 22 54.5t54 22.5t54 -22.5t22 -54.5t-22 -53.5t-54 -21.5t-54 21.5t-22 53.5zM260 70q0 32 22 54.5t54 22.5t54 -22.5t22 -54.5t-22 -53.5t-54 -21.5t-54 21.5
t-22 53.5z" />
    <glyph glyph-name="perthousand" unicode="&#x2030;" horiz-adv-x="1180" 
d="M10 494q0 72 46.5 121.5t117.5 49.5t117.5 -49.5t46.5 -121.5t-46.5 -121.5t-117.5 -49.5t-117.5 49.5t-46.5 121.5zM106 494q0 -35 19.5 -55.5t48.5 -20.5t48.5 20.5t19.5 55.5q0 36 -19 56t-49 20t-49 -20t-19 -56zM596 625l-293 -654l-103 51l293 654zM462 156
q0 72 46.5 121.5t117.5 49.5t117.5 -49.5t46.5 -121.5t-46.5 -121.5t-117.5 -49.5t-117.5 49.5t-46.5 121.5zM558 156q0 -35 19.5 -55.5t48.5 -20.5t48.5 20.5t19.5 55.5q0 36 -19 56t-49 20t-49 -20t-19 -56zM842 156q0 72 46.5 121.5t117.5 49.5t117.5 -49.5t46.5 -121.5
t-46.5 -121.5t-117.5 -49.5t-117.5 49.5t-46.5 121.5zM938 156q0 -35 19.5 -55.5t48.5 -20.5t48.5 20.5t19.5 55.5q0 36 -19 56t-49 20t-49 -20t-19 -56z" />
    <glyph glyph-name="guilsinglleft" unicode="&#x2039;" horiz-adv-x="331" 
d="M20 235l206 225l75 -73l-148 -152l148 -152l-75 -73z" />
    <glyph glyph-name="guilsinglright" unicode="&#x203a;" horiz-adv-x="331" 
d="M105 460l206 -225l-206 -225l-75 73l148 152l-148 152z" />
    <glyph glyph-name="Euro" unicode="&#x20ac;" horiz-adv-x="556" 
d="M10 214v93h72v36h-72v93h77q11 119 71 174t153 55q81 0 134.5 -30t83.5 -116l-118 -46q-21 79 -100 79q-42 0 -68 -28t-28 -88h130v-93h-135v-36h135v-93h-130q2 -60 28 -88t68 -28q79 0 100 79l118 -46q-30 -86 -83.5 -116t-134.5 -30q-93 0 -153 55t-71 174h-77z" />
    <glyph glyph-name="afii61352" unicode="&#x2116;" horiz-adv-x="981" 
d="M679 463q0 56 40 96t96 40t96 -40t40 -96t-40 -96t-96 -40t-96 40t-40 96zM768 463q0 -19 14 -33t33 -14t32.5 13.5t13.5 33.5q0 19 -13.5 32.5t-32.5 13.5q-20 0 -33.5 -13.5t-13.5 -32.5zM679 209v80h272v-80h-272zM486 0l-290 433v-433h-136v650h143l290 -433v433h136
v-650h-143z" />
    <glyph glyph-name="trademark" unicode="&#x2122;" horiz-adv-x="512" 
d="M361 532l43 118h98v-231h-81v96l-36 -96h-47l-36 96v-96h-82v163h-63v-163h-82v163h-65v68h308z" />
    <glyph glyph-name="CR" horiz-adv-x="220" 
 />
    <glyph glyph-name="percent" horiz-adv-x="800" 
d="M10 494q0 72 46.5 121.5t117.5 49.5t117.5 -49.5t46.5 -121.5t-46.5 -121.5t-117.5 -49.5t-117.5 49.5t-46.5 121.5zM106 494q0 -35 19.5 -55.5t48.5 -20.5t48.5 20.5t19.5 55.5q0 36 -19 56t-49 20t-49 -20t-19 -56zM596 625l-293 -654l-103 51l293 654zM462 156
q0 72 46.5 121.5t117.5 49.5t117.5 -49.5t46.5 -121.5t-46.5 -121.5t-117.5 -49.5t-117.5 49.5t-46.5 121.5zM558 156q0 -35 19.5 -55.5t48.5 -20.5t48.5 20.5t19.5 55.5q0 36 -19 56t-49 20t-49 -20t-19 -56z" />
    <glyph glyph-name="hyphen.2" horiz-adv-x="435" 
d="M50 278v103h335v-103h-335z" />
    <glyph glyph-name="asciitilde.2" horiz-adv-x="653" 
d="M229 420l175 -55q50 -17 75.5 -2t24.5 67l109 -29q-6 -88 -53 -136t-136 -20l-175 55q-103 32 -100 -70l-109 29q6 88 52.5 136.5t136.5 24.5z" />
    <glyph glyph-name="endash.2" horiz-adv-x="515" 
d="M70 278v103h375v-103h-375z" />
    <glyph glyph-name="emdash.2" horiz-adv-x="715" 
d="M100 278v103h515v-103h-515z" />
    <glyph glyph-name="uni00AD.2" horiz-adv-x="435" 
d="M50 278v103h335v-103h-335z" />
    <glyph glyph-name="plus.2" horiz-adv-x="505" 
d="M50 278v103h141v141h123v-141h141v-103h-141v-141h-123v141h-141z" />
    <glyph glyph-name="colon.2" horiz-adv-x="232" 
d="M40 195q0 32 22 54.5t54 22.5t54 -22.5t22 -54.5t-22 -53.5t-54 -21.5t-54 21.5t-22 53.5zM40 440q0 32 22 54.5t54 22.5t54 -22.5t22 -54.5t-22 -53.5t-54 -21.5t-54 21.5t-22 53.5z" />
    <glyph glyph-name="periodcentered.2" horiz-adv-x="272" 
d="M60 326q0 32 22 54.5t54 22.5t54 -22.5t22 -54.5t-22 -53.5t-54 -21.5t-54 21.5t-22 53.5z" />
    <glyph glyph-name="bullet.2" horiz-adv-x="320" 
d="M70 327q0 36 26 63t64 27q36 0 63 -26.5t27 -63.5q0 -38 -27 -64t-63 -26q-38 0 -64 27t-26 63z" />
    <glyph glyph-name="plusminus.2" horiz-adv-x="545" 
d="M50 415v113h161v141h123v-141h161v-113h-161v-141h-123v141h-161zM50 125v113h445v-113h-445z" />
    <glyph glyph-name="equal.2" horiz-adv-x="475" 
d="M50 198v103h375v-103h-375zM50 358v103h375v-103h-375z" />
    </font>
</defs>
</svg>
